<?xml version="1.0" encoding="utf-8"?>
<!-- Generator: Adobe Illustrator 23.0.1, SVG Export Plug-In . SVG Version: 6.00 Build 0)  -->
<svg version="1.1" id="Layer_1" xmlns="http://www.w3.org/2000/svg" xmlns:xlink="http://www.w3.org/1999/xlink" x="0px" y="0px"
	 viewBox="0 0 990.3 727" style="enable-background:new 0 0 990.3 727;" xml:space="preserve">
<style type="text/css">
	.st0{fill:url(#SVGID_1_);}
	.st1{fill:#FFFFFF;}
	.st2{fill:#F5F5F5;}
	.st3{fill:url(#SVGID_2_);}
	.st4{fill:url(#SVGID_3_);}
	.st5{fill:url(#SVGID_4_);}
	.st6{fill:#6C63FF;}
	.st7{fill:#FFB8B8;}
	.st8{fill:#575A89;}
	.st9{opacity:0.2;enable-background:new    ;}
	.st10{fill:#2F2E41;}
	.st11{fill:#3F3D56;}
	.st12{opacity:0.1;enable-background:new    ;}
</style>
<title>by_my_car</title>
<linearGradient id="SVGID_1_" gradientUnits="userSpaceOnUse" x1="478.1207" y1="617" x2="478.1207" y2="721.3932" gradientTransform="matrix(1 0 0 -1 0 728)">
	<stop  offset="0" style="stop-color:#808080;stop-opacity:0.25"/>
	<stop  offset="0.5351" style="stop-color:#808080;stop-opacity:0.12"/>
	<stop  offset="1" style="stop-color:#808080;stop-opacity:0.1"/>
</linearGradient>
<rect x="195.8" y="6.6" class="st0" width="564.6" height="104.4"/>
<rect x="199.1" y="10" class="st1" width="557.1" height="95.4"/>
<rect x="233.4" y="29.5" class="st2" width="323.9" height="56.8"/>
<linearGradient id="SVGID_2_" gradientUnits="userSpaceOnUse" x1="833.4486" y1="474.4888" x2="833.4486" y2="552.3798" gradientTransform="matrix(1 0 0 -1 -164.0457 576.3)">
	<stop  offset="0" style="stop-color:#B3B3B3;stop-opacity:0.25"/>
	<stop  offset="0.5351" style="stop-color:#B3B3B3;stop-opacity:0.1"/>
	<stop  offset="1" style="stop-color:#B3B3B3;stop-opacity:5.000000e-02"/>
</linearGradient>
<path class="st3" d="M682.9,33.1c-11.5-11.9-30.5-12.3-42.4-0.8c-11.9,11.5-12.3,30.5-0.8,42.4c10.1,10.5,26.3,12.2,38.3,4.1
	l21.7,22.6c0.6,0.6,1.5,0.6,2.1,0l0,0l5.4-5.2c0.6-0.6,0.6-1.5,0-2.1l-21.7-22.6C694,59.8,693,43.6,682.9,33.1z M676.1,69.4
	c-8.5,8.2-22.1,7.9-30.3-0.6c-8.2-8.5-7.9-22.1,0.6-30.3c8.5-8.2,22.1-7.9,30.3,0.6C684.9,47.6,684.7,61.2,676.1,69.4L676.1,69.4z"
	/>
<linearGradient id="SVGID_3_" gradientUnits="userSpaceOnUse" x1="809.4029" y1="524.5996" x2="809.4029" y2="528.3485" gradientTransform="matrix(1 0 0 -1 -164.0457 576.3)">
	<stop  offset="0" style="stop-color:#000000;stop-opacity:0.12"/>
	<stop  offset="0.5513" style="stop-color:#000000;stop-opacity:9.000000e-02"/>
	<stop  offset="1" style="stop-color:#000000;stop-opacity:2.000000e-02"/>
</linearGradient>
<path class="st4" d="M645.4,48c-2.4,0-2.4,3.7,0,3.7C647.8,51.7,647.8,48,645.4,48z"/>
<linearGradient id="SVGID_4_" gradientUnits="userSpaceOnUse" x1="826.6217" y1="528.9004" x2="826.6217" y2="540.3665" gradientTransform="matrix(1 0 0 -1 -164.0457 576.3)">
	<stop  offset="0" style="stop-color:#000000;stop-opacity:0.12"/>
	<stop  offset="0.5513" style="stop-color:#000000;stop-opacity:9.000000e-02"/>
	<stop  offset="1" style="stop-color:#000000;stop-opacity:2.000000e-02"/>
</linearGradient>
<path class="st5" d="M662.2,35.9c-6.2-0.2-12.1,2.8-15.5,8c-1,1.6,1.9,3,2.9,1.4c2.6-4.1,7.5-6.7,12.9-6.5
	c5.5,0.2,10.5,3.1,13.4,7.8c1,1.7,3.7,0.2,2.7-1.5C675.2,39.7,668.9,36.1,662.2,35.9z"/>
<path class="st6" d="M682.9,29.8c-11.5-11.9-30.5-12.3-42.4-0.8c-11.9,11.5-12.3,30.5-0.8,42.4c10.1,10.5,26.3,12.2,38.3,4.1
	l21.7,22.6c0.6,0.6,1.5,0.6,2.1,0l5.4-5.2c0.6-0.6,0.6-1.5,0-2.1l-21.7-22.6C694,56.5,693,40.3,682.9,29.8z M676.1,66.1
	c-8.5,8.2-22.1,7.9-30.3-0.6c-8.2-8.5-7.9-22.1,0.6-30.3c8.5-8.2,22.1-7.9,30.3,0.6C684.9,44.3,684.7,57.9,676.1,66.1L676.1,66.1z"
	/>
<path class="st6" d="M645.4,44.7c-2.4,0-2.4,3.7,0,3.7C647.8,48.4,647.8,44.7,645.4,44.7z"/>
<path class="st6" d="M662.2,32.6c-6.2-0.2-12.1,2.8-15.5,8c-1,1.6,1.9,3,2.9,1.4c2.6-4.1,7.5-6.7,12.9-6.5
	c5.5,0.2,10.5,3.1,13.4,7.8c1,1.7,3.7,0.2,2.7-1.5C675.2,36.5,668.9,32.8,662.2,32.6z"/>
<path class="st7" d="M681.8,558.9c0,0,74.5,3.9,57.2,27.3s-63-13.8-63-13.8L681.8,558.9z"/>
<path class="st8" d="M544.5,335.5l15.2,3.8c0,0,8.8,26.5,15.2,50.6c6.3,24,19,96.1,19,96.1l98,68.7l-11.7,26.1l-130.5-51.4
	l-29.1-114.2L544.5,335.5z"/>
<polygon class="st9" points="558.7,382.6 553.1,501 564.9,536.2 530.3,510.8 "/>
<path class="st10" d="M579.2,592.7c0,0,16.4,44.2,19,74.6c2.5,30.3,5.1,54.3,5.1,54.3h-77.1L511,698.9v22.8h-89.7
	c0,0-25.3-82.2-15.2-92.3c10.1-10.1,106.2-53.1,106.2-53.1L579.2,592.7z"/>
<rect x="280" y="720.5" class="st11" width="446.1" height="1.5"/>
<circle class="st7" cx="482.5" cy="239.4" r="48"/>
<path class="st7" d="M445.9,259.6l-3.8,55.6l48,64.5l24-60.7c0,0-21.5-13.9-8.8-43L445.9,259.6z"/>
<path class="st8" d="M586.2,603.4c0,11.4-31.6,29.1-31.6,29.1v6.3l-12.6,6.3l-27.8-55.6l-7.6,60.7c0,0-55.6,8.9-73.3,0
	c-17.7-8.8-26.5-5.1-51.8-13.9c-25.3-8.8,10.1-127.7,10.1-127.7l-25.3-183.3l55.2-27.6l2.9-1.5l7.6-1.4l11.6-2.2l38.9,26.3l3.1,16.4
	l1.9,10.1l10.1-11.4l7.6-25.1l54.3,30.2l-15.2,121.3C544.5,460.6,586.2,592.1,586.2,603.4z"/>
<path class="st7" d="M400.4,642.6c0,0,58.1,46.8,30.3,55.6c-27.8,8.8-43-48-43-48L400.4,642.6z"/>
<path class="st8" d="M378.9,327.9l-12.6-2.5c0,0-19,10.1-20.2,30.3c-1.3,20.2-17.7,161.8-17.7,161.8l53.1,142.8l43-16.4l-41.7-134
	l31.6-116.3L378.9,327.9z"/>
<circle class="st10" cx="488.1" cy="361.9" r="4.6"/>
<circle class="st10" cx="488.1" cy="391.8" r="4.6"/>
<circle class="st10" cx="514.2" cy="589.2" r="4.6"/>
<path class="st10" d="M442,190.2l-8.9-3.6c0,0,18.6-20.4,44.4-18.7l-7.3-8c0,0,17.8-7.1,33.9,11.6c8.5,9.8,18.3,21.3,24.4,34.3h9.5
	l-4,8.7l13.9,8.7l-14.3-1.6c0.8,4.8,1,9.7,0.4,14.5c-0.6,4.8-3.1,9.2-6.9,12.3l0,0c0,0-11-22.8-11-26.3v8.9c0,0-8.9-8-8.9-13.3
	l-4.8,6.2h-32.3l4.8-8l-18.6,2.7l7.3-9.8L435,249.2C435,249.2,418.6,203.5,442,190.2z"/>
<circle class="st11" cx="727.6" cy="453.2" r="76.8"/>
<circle class="st12" cx="727.6" cy="453.2" r="66"/>
<path class="st6" d="M724.4,492.2v-9.6c-4.9-0.1-9.9-1.8-12.8-4.2l2-6.4c3.5,2.6,7.7,4,12.1,4.1c5.9,0,10-3.9,10-9.3
	c0-5.2-3.3-8.5-9.5-11.3c-8.5-3.8-13.8-8.2-13.8-16.5c0-7.9,4.9-13.9,12.6-15.3V414h5.2v9.2c3.9,0.1,7.7,1.2,10.9,3.3l-2.1,6.3
	c-3.1-2.1-6.8-3.3-10.6-3.2c-6.5,0-8.9,4.4-8.9,8.2c0,4.9,3.1,7.4,10.4,10.8c8.6,4,13,8.9,13,17.4c0,7.5-4.6,14.6-13.2,16.2v9.9
	H724.4z"/>
<polygon class="st9" points="394,546.4 424.8,642.3 400.2,542.5 "/>
</svg>
