<?xml version="1.0" encoding="utf-8"?>
<!-- Generator: Adobe Illustrator 23.0.1, SVG Export Plug-In . SVG Version: 6.00 Build 0)  -->
<svg version="1.1" id="Layer_1" xmlns="http://www.w3.org/2000/svg" xmlns:xlink="http://www.w3.org/1999/xlink" x="0px" y="0px"
	 viewBox="0 0 990.3 727" style="enable-background:new 0 0 990.3 727;" xml:space="preserve">
<style type="text/css">
	.st0{fill:#FFFFFF;enable-background:new    ;}
	.st1{opacity:0.1;fill:#6C63FF;enable-background:new    ;}
	.st2{fill:#3F3D56;}
	.st3{fill:#6C63FF;}
	.st4{fill:#D0CDE1;}
	.st5{fill:#8CD0F3;}
	.st6{opacity:0.1;fill:#8CD0F3;enable-background:new    ;}
	.st7{fill:#121C3F;}
	.st8{fill:#2856B8;}
	.st9{opacity:0.2;fill:#FFFFFF;enable-background:new    ;}
	.st10{opacity:0.5;fill:#18218A;enable-background:new    ;}
	.st11{fill:#182A7C;}
	.st12{fill:#3F8FFE;}
	.st13{opacity:0.2;fill:none;stroke:#FFFFFF;stroke-miterlimit:10;enable-background:new    ;}
	.st14{fill:none;}
	.st15{opacity:0.1;enable-background:new    ;}
	.st16{fill:#FFB9B9;}
	.st17{fill:#2F2E41;}
	.st18{fill:none;stroke:#3F3D56;stroke-miterlimit:10;}
	.st19{fill:#575A89;}
</style>
<path class="st0" d="M71.6,291.8c20.8,47.1-5.8,101.3-37,142.2c-10.5,13.7-22,28-23.5,45.2c-1.8,21,12.5,40.3,29.4,52.9
	c30.8,23,72.8,30.1,109.4,18.5c31.6-10,58.3-32.7,90.2-41.8c53.4-15.3,110,10.1,155.7,41.6c32.3,22.3,67,49.5,106,44.7
	c27.5-3.4,50.8-22.6,66.6-45.3c7.6-11,14.3-23.2,25.4-30.6c6.6-4.4,14.4-6.7,22.1-8.4c70.9-15.2,146.1,21.8,216.1,2.8
	c47.3-12.9,84.9-50.2,108.3-93.2s34.4-91.5,43.5-139.7c6.5-34.2,11.8-71.1-3-102.5c-15.7-33.3-52.2-53.4-88.8-57.2
	s-73.3,6.7-107.1,21.4c-42.2,18.4-83.5,44.2-129.5,44.3c-31.3,0.1-61.2-12-91.2-21.1c-50.2-15.3-102.2-22.9-154.1-30
	c-49.7-6.7-99.9-13-149.9-9c-35.4,2.8-66.6,16.3-100.9,22.6c-22.4,4.1-44.9,1-66.8,7.9c-27,8.5-54.8,28.1-56.3,58.9
	C34.9,245.3,60.6,266.8,71.6,291.8z"/>
<ellipse class="st1" cx="488.2" cy="584.7" rx="427.7" ry="41.1"/>
<g>
	<path class="st2" d="M862.4,157.8h-2.8V81.7c0-24.3-19.7-44.1-44.1-44.1c0,0,0,0,0,0H654.2c-24.3,0-44.1,19.7-44.1,44.1
		c0,0,0,0,0,0v417.9c0,24.3,19.7,44.1,44.1,44.1c0,0,0,0,0,0h161.4c24.3,0,44.1-19.7,44.1-44.1c0,0,0,0,0,0V212.1h2.8V157.8z"/>
	<path class="st3" d="M816.3,50.1h-21.1c3.3,8-0.6,17.1-8.6,20.4c-1.9,0.8-3.9,1.2-5.9,1.2h-92.5c-8.6,0-15.6-7-15.6-15.6
		c0-2,0.4-4,1.2-5.9h-19.7c-18.2,0-32.9,14.7-32.9,32.9v417.3c0,18.2,14.7,32.9,32.9,32.9c0,0,0,0,0,0h162.2
		c18.2,0,32.9-14.7,32.9-32.9v0V83C849.2,64.8,834.5,50.1,816.3,50.1L816.3,50.1z M812.8,243.7c0,4.7-3.8,8.5-8.5,8.5H763
		c-4.7,0-8.5-3.8-8.5-8.5v-2.1c0-4.7,3.8-8.5,8.5-8.5h41.2c4.7,0,8.5,3.8,8.5,8.5V243.7z M817.4,206c0,4.7-3.8,8.5-8.5,8.5H661
		c-4.7,0-8.5-3.8-8.5-8.5v-2.1c0-4.7,3.8-8.5,8.5-8.5h147.8c4.7,0,8.5,3.8,8.5,8.5V206z M817.4,168.3c0,4.7-3.8,8.5-8.5,8.5H661
		c-4.7,0-8.5-3.8-8.5-8.5v-2.1c0-4.7,3.8-8.5,8.5-8.5h147.8c4.7,0,8.5,3.8,8.5,8.5V168.3z M817.4,130.7c0,4.7-3.8,8.5-8.5,8.5H661
		c-4.7,0-8.5-3.8-8.5-8.5v-2.1c0-4.7,3.8-8.5,8.5-8.5h147.8c4.7,0,8.5,3.8,8.5,8.5V130.7z"/>
	<circle class="st4" cx="664.9" cy="205.3" r="5"/>
	<circle class="st4" cx="681.3" cy="205.3" r="5"/>
	<circle class="st4" cx="697.6" cy="205.3" r="5"/>
	<circle class="st4" cx="714" cy="205.3" r="5"/>
	<circle class="st4" cx="767.3" cy="243" r="5"/>
	<circle class="st4" cx="783.6" cy="243" r="5"/>
	<circle class="st4" cx="800" cy="243" r="5"/>
	<path class="st4" d="M654.9,331.1c-5.2-3.1-11.4-2.9-13.8-2.6c0.9,2.2,3.6,7.8,8.8,10.9c5.2,3.1,11.4,2.9,13.8,2.6
		C662.8,339.8,660.1,334.2,654.9,331.1z"/>
	<path class="st4" d="M679.2,392.8h-32.3c-4,0-7.3,3.3-7.3,7.3c0,4,3.3,7.3,7.3,7.3h32.3c4,0,7.3-3.3,7.3-7.3
		C686.5,396,683.2,392.8,679.2,392.8L679.2,392.8z"/>
	<path class="st4" d="M825.5,316H644.4c-8.9,0-16,7.2-16,16c0,0,0,0,0,0v88.2c0,8.9,7.2,16,16,16c0,0,0,0,0,0h181.1
		c8.9,0,16-7.2,16-16v0v-88.2C841.5,323.2,834.4,316,825.5,316C825.5,316,825.5,316,825.5,316z M639.9,327c0.4-0.1,8.8-1.5,15.9,2.7
		c7,4.2,9.7,12.4,9.8,12.7l0.3,0.9l-0.9,0.2c-1.3,0.2-2.6,0.3-3.9,0.3c-3.2,0-7.8-0.5-11.9-3c-7-4.2-9.7-12.4-9.8-12.7l-0.3-0.9
		L639.9,327z M679.2,408.9h-32.3c-4.9,0-8.9-4-8.9-8.9c0-4.9,4-8.9,8.9-8.9h32.3c4.9,0,8.9,4,8.9,8.9
		C688.1,404.9,684.1,408.9,679.2,408.9L679.2,408.9z M826.2,407.3c0,5.3-4.3,9.7-9.7,9.7h-24.2c-5.3,0-9.7-4.3-9.7-9.7v-14.5
		c0-5.3,4.3-9.7,9.7-9.7h24.2c5.3,0,9.7,4.3,9.7,9.7V407.3z"/>
	<path class="st4" d="M800,404.5h-10.5c-1.6,0-2.8,1.3-2.8,2.8c0,1.6,1.3,2.8,2.8,2.8H800c1.6,0,2.8-1.3,2.8-2.8
		C802.8,405.7,801.5,404.5,800,404.5z M800,408.5h-10.5c-0.7,0-1.2-0.5-1.2-1.2c0-0.7,0.5-1.2,1.2-1.2H800c0.7,0,1.2,0.5,1.2,1.2
		C801.2,408,800.6,408.5,800,408.5z"/>
	<path class="st4" d="M819.3,404.5h-10.5c-1.6,0-2.8,1.3-2.8,2.8c0,1.6,1.3,2.8,2.8,2.8h10.5c1.6,0,2.8-1.3,2.8-2.8
		C822.1,405.7,820.9,404.5,819.3,404.5L819.3,404.5z M819.3,408.5h-10.5c-0.7,0-1.2-0.5-1.2-1.2c0-0.7,0.5-1.2,1.2-1.2h10.5
		c0.7,0,1.2,0.5,1.2,1.2C820.5,408,820,408.5,819.3,408.5L819.3,408.5z"/>
	<path class="st4" d="M800,397.2h-10.5c-1.6,0-2.8,1.3-2.8,2.8c0,1.6,1.3,2.8,2.8,2.8H800c1.6,0,2.8-1.3,2.8-2.8
		C802.8,398.5,801.5,397.2,800,397.2z M800,401.2h-10.5c-0.7,0-1.2-0.5-1.2-1.2c0-0.7,0.5-1.2,1.2-1.2H800c0.7,0,1.2,0.5,1.2,1.2
		C801.2,400.7,800.6,401.2,800,401.2z"/>
	<path class="st4" d="M819.3,397.2h-10.5c-1.6,0-2.8,1.3-2.8,2.8c0,1.6,1.3,2.8,2.8,2.8h10.5c1.6,0,2.8-1.3,2.8-2.8
		C822.2,398.5,820.9,397.2,819.3,397.2L819.3,397.2z M819.3,401.2h-10.5c-0.7,0-1.2-0.5-1.2-1.2c0-0.7,0.5-1.2,1.2-1.2h10.5
		c0.7,0,1.2,0.5,1.2,1.2C820.5,400.7,820,401.2,819.3,401.2L819.3,401.2z"/>
	<path class="st4" d="M800,389.9h-10.5c-1.6,0-2.8,1.3-2.8,2.8c0,1.6,1.3,2.8,2.8,2.8c0,0,0,0,0,0H800c1.6,0,2.8-1.3,2.8-2.8
		C802.8,391.2,801.5,389.9,800,389.9z M800,394h-10.5c-0.7,0-1.2-0.5-1.2-1.2s0.5-1.2,1.2-1.2H800c0.7,0,1.2,0.5,1.2,1.2
		S800.6,394,800,394z"/>
	<path class="st4" d="M819.3,389.9h-10.5c-1.6,0-2.8,1.3-2.8,2.8s1.3,2.8,2.8,2.8c0,0,0,0,0,0h10.5c1.6,0,2.8-1.3,2.8-2.8
		C822.2,391.2,820.9,389.9,819.3,389.9L819.3,389.9z M819.3,394h-10.5c-0.7,0-1.2-0.5-1.2-1.2s0.5-1.2,1.2-1.2h10.5
		c0.7,0,1.2,0.5,1.2,1.2S820,394,819.3,394L819.3,394z"/>
</g>
<path class="st5" d="M315,450.9c0,0,117.3-74.9,198.3-74.9c0,0,97.6-15.2,203.7,10.5c106.2,25.7,145.4,59,174.8,49.2l-123.6,3.6
	L315,450.9z"/>
<path class="st6" d="M315,450.9c0,0,117.3-74.9,198.3-74.9c0,0,97.6-15.2,203.7,10.5c106.2,25.7,145.4,59,174.8,49.2l-123.6,3.6
	L315,450.9z"/>
<polygon class="st7" points="867.7,565.6 152.6,565.6 172.3,486.8 293.9,454.5 867.7,469.6 "/>
<path class="st8" d="M905.3,516.4v25.1c0,0-21.2,15.4-23.2,27.5c0,0-30.4,7.7-39.1,7.7c-0.8,0-1.7,0-2.5,0.1
	c1.4-3.6,2.4-7.4,3.2-11.2c8-39.9-18-78.7-57.9-86.7c-39.9-8-78.7,18-86.7,57.9c-1.9,9.5-1.9,19.3,0,28.8c1,5.2,2.6,10.2,4.7,15
	h-41.2c0,0-0.4,0.1-1,0.4c-2.2,1-7.4,3.6-8.2,7.8H311.8l-7-0.1c1.5-2.5,2.8-5.1,4-7.7c2.2-4.9,3.8-10.1,4.9-15.4
	c8-39.9-17.8-78.8-57.8-86.9c-39.9-8-78.8,17.8-86.9,57.8c-1,4.8-1.5,9.7-1.4,14.6c0,4.9,0.5,9.7,1.4,14.5
	c1.6,8.1,4.6,15.8,8.7,22.9c-4.9-1.2-15.5-4.6-15.5-4.6s-45.4-4.8-56.9-15l1.8-1.2l7.4-5.1l-3.4-13c-0.4-0.5-0.7-1.1-1-1.8
	c-0.9-2.2-1.7-6.2,1.5-11.3c4.8-7.7,2.4-35.2,2.4-35.2s65.6-45.3,194.9-55.5c0,0,3.1,2.4,9.5,2.9c4.3,0.3,10.1-0.2,17.6-2.9
	c0,0,10.6,4.8,56-21.2c0,0,77.2-53.1,178.5-48.2c0,0,104.2-6.3,193,28c38.3,14.8,67.4,22.6,88.1,26.8c19.2,3.8,31.2,4.6,36.7,4.6
	h0.1c1.8,0,2.9,0,3.3,0h0.2c0,0,0,11.5,0.6,25.1v0.1c0.2,4.7,0.5,9.7,0.9,14.5v0.3c1.2,13.5,3.2,25.7,6.6,28.1L905.3,516.4z"/>
<path class="st5" d="M124.4,500.3c0,0,29.1-22.7,65.3-17.8c0,0-32.9,26.1-47.8,24.4l-2.5-2.2l-15,0.8
	C124.4,505.5,122.2,502,124.4,500.3z"/>
<path class="st9" d="M152.7,539.5v13.4c0,0-1,12.8-12.6,13.3l-33,1.6l7.4-5.1l-3.4-13c-0.4-0.5-0.7-1.1-1-1.8
	c3-2.8,10.1-7.4,24.4-8.4L152.7,539.5z"/>
<path class="st9" d="M306.2,483.4l25.3-1c0,0-10.3,8.1-17.5,8.8S306.2,483.4,306.2,483.4z"/>
<path class="st9" d="M359.5,560.2c0,0,229.1-31.8,284.4-21.7c0,0,16.3,1.1,22.4,7.6c6.2,6.5,0,2.3,0,2.3L359.5,560.2z"/>
<path class="st10" d="M487.8,470.9c0,0,2.9-5.4,7.6-5.5l30.5-1.6c0,0-0.5,4.2-5.9,5.8L487.8,470.9z"/>
<path class="st10" d="M664.4,461.7c0,0,2.9-5.4,7.6-5.5l30.5-1.6c0,0-0.5,4.2-5.9,5.8L664.4,461.7z"/>
<path class="st5" d="M560.2,387.3l-23.4,61.4l-84.4,0.1h-21.7h-18.9h-16.4h-18.5c0,0,11.3-8.3,29.5-18.8c6-3.5,12.8-7.2,20.2-11
	c6.8-3.5,14.1-7,21.8-10.3c6-2.6,12.3-5.2,18.8-7.5C496.3,390.4,529.2,383.2,560.2,387.3z"/>
<path class="st5" d="M692.8,432.1c0,0-35.3,5.2-68.9,9.1c-12.9,1.5-25.5,2.8-35.8,3.5l-1.4,0.1c-4,0.3-7.7,0.4-10.9,0.5
	c-5,0.1-8.7-0.1-10.6-0.7l9.7-58.8c0,0,12,0.1,29.8,1l3.9,0.2c3.7,0.2,7.6,0.5,11.6,0.7c5.8,0.4,11.9,0.9,18.2,1.5
	c30.4,2.8,64.9,7.8,86.7,16.8C771.5,425.3,692.8,432.1,692.8,432.1z"/>
<path class="st5" d="M855.4,461.7v15.7c0,0-25.3,0.4-19.9-4.7c3.5-3.4,6.7-7,9.5-11L855.4,461.7z"/>
<path class="st5" d="M893.4,475.8l-20.6,1.6v-18.8c0,0,9.5-13.4,19.1,1.5l0.5,0.9L893.4,475.8z"/>
<circle class="st11" cx="241.4" cy="551.1" r="58.9"/>
<path class="st12" d="M288.6,551.1c0,26.2-21.1,47.4-47.3,47.5c-26.2,0-47.4-21.1-47.5-47.3c0-26.2,21.1-47.4,47.3-47.5
	c22.5,0,41.9,15.7,46.5,37.7C288.3,544.6,288.6,547.8,288.6,551.1z"/>
<ellipse class="st10" cx="241.3" cy="551.1" rx="40.6" ry="40.7"/>
<path class="st12" d="M254.9,505.6v1.7l-13.5,44.7l-10.8-47.2C238.6,503,247,503.3,254.9,505.6L254.9,505.6z"/>
<path class="st12" d="M254.8,596.5c-7.7,2.3-15.9,2.6-23.8,0.8l10.4-45.3L254.8,596.5z"/>
<path class="st12" d="M288.6,551.1c0,4.9-0.8,9.8-2.3,14.5h-0.2l-44.7-13.5l46.3-10.6C288.3,544.6,288.6,547.9,288.6,551.1z"/>
<path class="st12" d="M241.4,552.1l-44.7,13.5h-0.4c-2.5-7.8-2.9-16.1-1.3-24.2L241.4,552.1z"/>
<circle class="st11" cx="241.3" cy="551.1" r="5.2"/>
<circle class="st11" cx="771.1" cy="551.1" r="58.9"/>
<path class="st12" d="M818.3,551.1c0,26.2-21.1,47.4-47.3,47.5c-26.2,0-47.4-21.1-47.5-47.3c0-26.2,21.1-47.4,47.3-47.5
	c22.5,0,41.9,15.7,46.5,37.7C817.9,544.6,818.3,547.8,818.3,551.1z"/>
<ellipse class="st10" cx="771" cy="551.1" rx="40.6" ry="40.7"/>
<path class="st12" d="M784.6,505.6v1.7l-13.5,44.7l-10.8-47.2C768.3,503,776.7,503.3,784.6,505.6z"/>
<path class="st12" d="M784.5,596.5c-7.7,2.3-15.9,2.6-23.8,0.8l10.4-45.3L784.5,596.5z"/>
<path class="st12" d="M818.3,551.1c0,4.9-0.8,9.8-2.3,14.5h-0.2l-44.7-13.5l46.3-10.6C818,544.6,818.3,547.8,818.3,551.1z"/>
<path class="st12" d="M771.1,552.1l-44.7,13.5H726c-2.5-7.8-2.9-16.1-1.3-24.2L771.1,552.1z"/>
<circle class="st11" cx="771" cy="551.1" r="5.2"/>
<path class="st9" d="M426.4,419l-14.8,29.8h-16.4l10.9-18.8C412.3,426.5,419.1,422.8,426.4,419z"/>
<path class="st9" d="M467,401.1l-14.7,47.7h-21.7l17.7-40.1C454.3,406,460.6,403.5,467,401.1z"/>
<path class="st9" d="M620.2,387.8l-32.1,56.9l-1.4,0.1c-4,0.3-7.7,0.4-10.9,0.5l28.9-58.4l3.9,0.2
	C612.2,387.3,616.1,387.5,620.2,387.8z"/>
<polygon class="st13" points="377.3,448.6 359,574.8 512,571.5 537.2,449.2 "/>
<path class="st10" d="M661.6,581c-2.2,1-7.4,3.6-8.2,7.8H311.8l-7-0.1c1.5-2.5,2.8-5.1,4-7.7L661.6,581z"/>
<path class="st14" d="M518.5,527.9h-0.3C518.2,527.9,529.7,524.8,518.5,527.9z"/>
<path class="st15" d="M613.6,585.8v1.7C613.4,586.9,613.4,586.3,613.6,585.8z"/>
<path class="st15" d="M645.1,613.5c-6.6,2-13.6,2.1-20.2,0.2l-1.7-4.4l20.1-4.3C643.3,605,644,608.5,645.1,613.5z"/>
<title>by_my_car</title>
<g>
	<path class="st16" d="M377.5,439.5c0,0,2,23.1,9.8,22.1s-3.9-25.6-3.9-25.6L377.5,439.5z"/>
	<polygon class="st16" points="328.9,599.8 332.3,616.2 346.5,607.3 338.7,593.4 	"/>
	<path class="st17" d="M330.4,608.4c0,0-8.1,11.1-8.5,18.2s24.8,5.7,24.8,5.7s10,8.2,28-1.7s-10.3-12.9-10.3-12.9l-8.4-8
		c0,0-6.4-5.1-8-6.3c-1.6-1.2-5.9,5.9-5.9,5.9C340.7,615.3,330.4,608.4,330.4,608.4z"/>
	<path class="st15" d="M330.4,608.4c0,0-8.1,11.1-8.5,18.2s24.8,5.7,24.8,5.7s10,8.2,28-1.7s-10.3-12.9-10.3-12.9l-8.4-8
		c0,0-6.4-5.1-8-6.3c-1.6-1.2-5.9,5.9-5.9,5.9C340.7,615.3,330.4,608.4,330.4,608.4z"/>
	<path class="st17" d="M343.1,424.3l-8.4,95.8l4.4,55c-0.4,1.7-1.2,3.2-2.2,4.6c-1.7,2.1-0.2,2.3,6.6,7.2c6.9,4.9-0.5,1.5-2.9,4.9
		c-2.5,3.4,2.9,3.9,2.9,3.9l-16.2,8.4c0,0-0.2-5.2-8.1-15.5c-7.9-10.3-8.1-63.7-8.1-63.7l-7.4-89.2L343.1,424.3z"/>
	<path class="st15" d="M343.1,424.3l-8.4,95.8l4.4,55c-0.4,1.7-1.2,3.2-2.2,4.6c-1.7,2.1-0.2,2.3,6.6,7.2c6.9,4.9-0.5,1.5-2.9,4.9
		c-2.5,3.4,2.9,3.9,2.9,3.9l-16.2,8.4c0,0-0.2-5.2-8.1-15.5c-7.9-10.3-8.1-63.7-8.1-63.7l-7.4-89.2L343.1,424.3z"/>
	<path class="st18" d="M315.1,604.2"/>
	<polygon class="st16" points="309.7,591.4 297.4,604.2 317.1,611.6 323.9,593.4 	"/>
	<path class="st17" d="M303.6,597.5c0,0-12.9,6.7-16.5,13.1c-3.7,6.4,20.7,17,20.7,17s5.5,12.4,27.1,11.5c21.6-0.9-3.7-17-3.7-17
		l-4.1-11.5c0,0-3.7-7.8-4.6-9.6c-0.9-1.8-8.3,2.8-8.3,2.8C310,608.8,303.6,597.5,303.6,597.5z"/>
	<path class="st17" d="M316.6,433.6l16.2,74.7c0,0,0,4.9,4.9,5.9c4.9,1,2.9,1,2,5.9s-4.4,6.4-4.4,6.4l-21.6,52.6
		c0,0-8.4,5.4-6.4,7.9s-3.4,7.9-3.4,7.9l21.6,5.4c0.8-2.5,2.5-4.7,4.9-5.9c3.9-2,3.9-12.8,3.9-12.8c16.7-8.8,35.9-63.4,35.9-63.4
		l-3.9-82.1L316.6,433.6z"/>
	<circle class="st16" cx="348.5" cy="287.7" r="19.7"/>
	<path class="st16" d="M348.3,295.3c-1.5,2,0,23.1,0,23.1s-22.6,0.5-20.6-2c2-2.5,3.4-27.5,3.4-27.5S349.7,293.3,348.3,295.3z"/>
	<path class="st19" d="M320.5,318.6c-3.5,1.4-6.8,4.1-9.8,7.4c-8.7,9.8-13.3,22.5-12.9,35.6c0.6,23.2,1.9,66,2.6,67.1
		c1,1.5,1.5,12.8,1.5,12.8c10.3-4.9,65.9,0,65.9,0L364,329.7c-0.1-4.9-2.8-9.4-7-12c-2.5-1.5-4.8-3.2-7-5
		c-6.9-5.9-25.6-3.9-25.6-3.9C319.5,309.3,320.5,318.6,320.5,318.6z"/>
	<path class="st19" d="M337.7,349.1c0,0,0.5,1.2,1.3,3.4c5.8,15.6,30,80.2,32.2,80.7c2.5,0.5,3.9,10.8,3.9,10.8l12.3-3.9
		c0,0-4.4-10.3-2.5-12.8s-2.9-6.9-2.9-6.9l-9.8-39.8l-7-49.9c-0.8-5.8-5-10.5-10.7-12l0,0C338.7,316.2,337.7,349.1,337.7,349.1z"/>
	<path class="st15" d="M367.7,429.3l-29.7-80.4C338.9,374.9,367.7,429.3,367.7,429.3z"/>
	<path class="st17" d="M332.1,300c-3-0.2-5-8-5.7-10.3c-1.3-4.4-1.3-9.1,0.1-13.5c1.7-5.4,5.3-9.9,9.3-13.8c1.6-1.7,3.5-3,5.5-3.9
		c2.6-1,5.5-0.9,8.2-0.4c4.1,0.8,8,2.6,11.2,5.1c1.9,1.5,3.9,3.3,6.3,3.3c0.5-0.1,1,0,1.4,0.3c0.8,0.8,0,3,1.1,2.9
		c1-1,2.5-1.4,3.9-1c-0.1,1.2,0.1,2.4,0.6,3.6l1.3-1.4c0.3,2.7-0.3,5.4-1.6,7.8c-1.4,2.3-4,3.9-6.7,3.8c-1.7-0.1-3.4-0.9-5.1-1.2
		c-1.7-0.3-3.8-0.1-4.7,1.4c-0.3,0.7-0.6,1.5-0.7,2.2c-1.3,5.8-7.4,10.1-13.4,9.3c-1.7-0.2-3.3-0.8-4.9-0.7
		C333.6,293.7,335.8,300.3,332.1,300z"/>
</g>
</svg>
