<?xml version="1.0" encoding="utf-8"?>
<!-- Generator: Adobe Illustrator 23.0.1, SVG Export Plug-In . SVG Version: 6.00 Build 0)  -->
<svg version="1.1" id="Layer_1" xmlns="http://www.w3.org/2000/svg" xmlns:xlink="http://www.w3.org/1999/xlink" x="0px" y="0px"
	 viewBox="0 0 350 501" style="enable-background:new 0 0 350 501;" xml:space="preserve">
<style type="text/css">
	.st0{fill:#6C63FF;}
</style>
<g>
	<path class="st0" d="M23.6,229.2c0.5-5.5,2.3-10.5,5.6-14.9c2.8-3.8,6.5-6.8,10.9-8.8c2.9-1.4,6-2.2,9.2-2.5
		c1.5-0.2,2.9-0.2,4.4-0.1c4.9,0.4,9.6,1.8,13.7,4.5c3.3,2.1,6,4.8,8.2,8.1c2.2,3.3,3.7,7,4.3,10.9c0.2,0.9,0.3,1.9,0.4,2.8
		c0,0.1,0.1,0.3,0.1,0.4c0,1.1,0,2.3,0,3.4c-0.1,0.4-0.1,0.7-0.2,1c-0.2,2.4-0.7,4.7-1.6,6.9c-1.4,3.8-3.4,7-6.1,10
		c-4,4.2-8.9,7-14.5,8.2c-1.1,0.3-2.2,0.4-3.3,0.5c-0.1,0-0.2,0.1-0.2,0.1c-1.6,0-3.4,0-5,0c-0.1,0-0.2-0.1-0.3-0.1
		c-4.3-0.5-8.3-1.7-12.1-4c-2.5-1.5-4.7-3.3-6.5-5.5c-1.8-2.1-3.3-4.3-4.5-6.9c-1.1-2.4-1.9-4.9-2.3-7.6c-0.1-0.7-0.2-1.5-0.3-2.3
		c0-0.1,0-0.3-0.1-0.4c0-1.2,0-2.4,0-3.6C23.6,229.3,23.6,229.3,23.6,229.2z M53.6,209.3L53.6,209.3L53.6,209.3v-0.2l0,0
		c0.2,0,0.3,0,0.4-0.1c0.1-0.1,0.3-0.2,0.4-0.1c0.2,0,0.3-0.1,0.3-0.3c0,0,0,0,0.1,0c0.2,0,0.3,0.1,0.5,0c0.7-0.2,1.5-0.1,2.1,0.1
		c0.1,0,0.1,0,0.2,0l0,0c0,0.1,0,0.1-0.1,0.2h0.1c0.1,0.2,0.2,0.3,0.3,0.5c0.2-0.1,0.3-0.1,0.3,0c0,0,0,0,0,0.1s-0.1,0.2-0.1,0.3
		c0,0.5,0.1,1,0.1,1.5c0,0.4,0.1,0.6,0.1,1c0.2,0,0.5,0.4,0.4,0.6c0.1,0,0.3,0,0.4,0c0.5,0.7,1.2,1.5,1.6,2.3
		c0.3,0.4,0.3,0.9,0.5,1.4c0.6,2,1.4,3.9,2,5.9c0.9,3,1.7,6.1,2.4,9.2c0,0.1,0.1,0.2,0.2,0.3c1.2,0.8,2.5,1.6,3.7,2.5h0.1
		c0.3-0.3,0.5-0.5,0.7-0.8c0.1-0.2,0.3-0.2,0.5-0.1c2.2,1.2,4.3,2.4,6.5,3.5c0.1,0.1,0.2,0.1,0.4,0.2c0.2-1,0.4-1.9,0.5-2.8
		c0-0.2,0.1-0.3,0.1-0.5c0-0.4,0-0.6,0-1c0-0.1,0-0.2,0-0.3l0,0l0,0c0-1.2,0-2.4-0.1-3.6c-0.2-2.4-0.7-4.8-1.6-7
		c-1-2.6-2.4-5-4.1-7.1c0,0,0,0,0-0.1c0.1-0.3,0.1-0.4-0.3-0.4l0,0l0,0c0-0.3,0-0.5-0.4-0.7c-0.1,0-0.2-0.1-0.3-0.2c0,0,0,0,0.1-0.1
		c0.1,0,0.1,0,0.2,0v-0.1c-0.1,0-0.2,0-0.4,0c0,0,0,0,0.1,0c-0.1-0.1-0.3-0.2-0.4-0.4c0-0.1-0.1-0.1-0.1-0.2
		c-0.1-0.1-0.1-0.3-0.3-0.2h-0.1c0-0.2-0.4-0.4-0.4-0.5c0-0.3-0.3-0.2-0.4-0.3c-0.1-0.4-0.2-0.5-0.7-0.5c0,0,0,0-0.1-0.1
		c0-0.1,0-0.2-0.1-0.3c-0.2-0.2-0.4-0.3-0.5-0.5c-0.1-0.1-0.2-0.1-0.2-0.2c0-0.2-0.1-0.2-0.3-0.2c-0.1,0-0.1,0-0.2-0.1
		c-0.2-0.4-0.5-0.3-0.7-0.3l0,0l0,0c0.1-0.3-0.1-0.4-0.4-0.4c0-0.3-0.1-0.4-0.4-0.4c-0.2,0-0.3,0-0.4-0.2c0-0.1-0.3-0.1-0.5-0.1l0,0
		l0,0c0-0.1,0-0.2,0-0.3c-0.3,0-0.6-0.1-0.7-0.5c0-0.1-0.1-0.1-0.2-0.1c-0.2,0-0.3-0.1-0.5-0.1c-0.1,0-0.2-0.2-0.3-0.3
		c-0.3,0.1-0.5-0.1-0.7-0.3c-0.2-0.2-0.5-0.1-0.7-0.2c-0.1,0-0.2,0-0.2-0.1c-0.2-0.3-0.5-0.3-0.8-0.2l0,0c0-0.1,0-0.3,0-0.4
		c-0.1,0-0.2,0-0.3,0c-0.3,0-0.5,0-0.7,0c-0.1,0-0.3,0-0.3-0.2s-0.2-0.2-0.4-0.2c-0.4,0-0.6,0-1-0.1l0,0c-0.1-0.5-0.5-0.3-0.6-0.3
		c-0.3,0-0.6,0-0.9,0l0,0c0-0.2-0.1-0.3-0.3-0.3c-0.4,0-0.7-0.1-1.1-0.1c-0.2,0-0.4,0-0.6,0c-0.4,0-0.7,0-1.2-0.1
		c-0.1,0-0.1,0-0.1,0c-0.1-0.3-0.4-0.2-0.5-0.2c-0.2,0-0.3,0-0.5,0c-0.5,0-0.8,0-1.3,0c-0.2,0-0.5,0-0.6-0.1s-0.3,0-0.4,0.1
		c0,0.1-0.2,0.1-0.2,0.1c-0.5,0-1.2,0-1.7,0c-0.2,0-0.5,0.1-0.6,0.1c-0.1,0-0.2,0-0.3,0c-0.3,0-0.5,0-0.5,0.4l0,0
		c-0.4,0-0.7,0-1.1,0v0.1c-0.1,0-0.1,0-0.2,0s-0.3-0.1-0.4-0.1v0.1c0,0.1,0.1,0.1,0.1,0.2c-0.5,0.2-0.8,0.2-1.3,0.1
		c0.1,0,0.2,0.1,0.3,0.2c-0.3,0.1-0.5,0.2-0.8,0.3c-0.1,0-0.2,0-0.3,0c-0.2,0-0.5-0.2-0.4,0.3c0,0.1-0.1,0.1-0.1,0.2l0,0
		c-0.3-0.1-0.5-0.1-0.8,0.2c-0.1,0.1-0.3,0.1-0.4,0.1s-0.3,0.1-0.4,0.1l0,0c-0.1,0-0.2,0-0.3,0c0,0.4-0.3,0.4-0.5,0.4
		c-0.1,0-0.3,0.1-0.3,0.2c-0.1,0.2-0.3,0.2-0.5,0.3c-0.1,0-0.2,0.1-0.3,0.1c-0.2,0.3-0.4,0.4-0.6,0.3c-0.1,0.2-0.1,0.5-0.5,0.4
		c-0.2,0.2-0.3,0.3-0.6,0.2c-0.3-0.1-0.4,0.1-0.3,0.4c-0.3,0-0.4,0.1-0.4,0.4l0,0l0,0c-0.4-0.1-0.6,0.1-0.7,0.4c-0.1,0-0.3,0-0.4,0
		c0,0.3,0,0.5-0.3,0.4l-0.1,0.1c-0.1,0.1-0.2,0.2-0.3,0.3s-0.2,0.2,0,0.3c-1.2,1-2.3,2.1-3.3,3.3c-1.6,1.8-2.8,3.9-3.8,6.1
		c-0.1,0.1-0.1,0.2-0.2,0.4c-0.1,0.2-0.3,0.4-0.3,0.5c-0.1,0.4-0.3,0.5-0.5,0.5c0,0.2,0,0.4-0.1,0.5c-0.2,0.6-0.4,1.3-0.5,1.8
		c-0.1,0.3-0.3,0.5-0.3,0.8c-0.1,0.3,0,0.6,0,1l0,0c-0.2,0-0.2,0.3-0.2,0.4c-0.1,0.5-0.1,0.9-0.1,1.4c0,0.5-0.1,0.9-0.2,1.4
		c-0.1,0.5-0.1,1-0.2,1.5c0,0.3,0,0.5,0.1,0.7c0,0.1,0,0.2,0,0.3c0.1,0.9,0.2,1.7,0.2,2.7c0,0.2,0.1,0.5,0,0.6
		c-0.1,0.2-0.1,0.4,0,0.5c0.2,0.2,0.2,0.5,0.5,0.5l0,0c0,0.4,0,0.6,0.1,1l0,0c0.1,0.4,0.3,0.7,0.4,1c0,0.1,0.1,0.1,0.1,0.2
		c0.8,2.9,2.2,5.6,3.9,8.1c2.7,3.8,6.2,6.6,10.4,8.5c2.1,1,4.4,1.6,6.7,1.9c0.1,0,0.2,0,0.3,0c0.2,0,0.3,0.1,0.5,0.1l0,0
		c0.2,0,0.3,0,0.5,0.1l0,0c0.2,0,0.3,0.1,0.5,0.1c0.4,0,0.7,0,1.2,0c0.2,0,0.5,0,0.6,0c0.4,0,0.7,0,1.1,0c0.1,0,0.3,0,0.4,0
		c0.1,0,0.1,0,0.2,0c0.5-0.1,1.1-0.1,1.7-0.2c1.9-0.2,3.8-0.6,5.7-1.3c0.2-0.1,0.5-0.2,0.7-0.3c-0.5-0.4-0.8-0.6-1.2-0.9
		c-0.5-0.4-0.8-0.7-1.3-1c-0.2-0.1-0.2-0.2-0.1-0.4c0.2-0.5,0.3-0.9,0.5-1.4c0.1-0.2,0.1-0.3-0.1-0.4l-0.1-0.1
		c-0.4-0.3-0.7-0.7-1.2-0.8c-0.5-0.2-0.9,0-1.5-0.1c-0.3,0-0.5,0-0.8,0c-0.1,0-0.2-0.1-0.2-0.1c-0.9,0-1.9,0-2.8,0
		c-0.1,0-0.1,0-0.2,0.1c-1-0.5-2-1.1-3.1-1.6c-2.9-1.5-5.8-2.9-8.6-4.5c-0.5-0.3-1.1-0.8-1.6-1.2c-1.3-1.1-2.5-2.3-3.6-3.6
		c-0.8-1-0.9-2.1-0.4-3.3c0.2-0.5,0.5-0.8,0.8-1.3c0.1-0.1,0.1-0.2,0.1-0.3c-0.1-0.6-0.3-1.3-0.4-1.8c-0.1-1.3,0.5-2.2,1.5-2.9
		c0.3-0.2,0.6-0.4,0.8-0.5c-0.2-0.6-0.5-1.2-0.5-1.8c-0.2-0.8,0-1.6,0.6-2.2c0.5-0.5,1.1-0.7,1.6-1.1c0.2-0.1,0.3-0.2,0.2-0.4
		c-0.3-1.3-0.4-2.6,0.3-3.8c0.5-0.9,1.3-1.5,2.4-1.7c1.2-0.3,2.4-0.2,3.5,0.4c1.8,0.8,3.8,1.7,5.6,2.6c0,0,0.1,0,0.2,0
		c0.4-0.6,0.7-1.3,1.1-1.9c0.3-0.5,0.4-1,0.5-1.6c0.1-0.3,0-0.5-0.2-0.7c-1-1.6-1.5-3.3-1.4-5.2c0.1-1.1,0.5-2.1,1.6-2.7
		c0.1,0,0.2,0,0.3,0C53.6,209.2,53.6,209.3,53.6,209.3z M51.9,238.4c-0.2-0.2-0.3-0.5-0.4-0.6c-0.2,0.1-0.4,0.2-0.5,0.3
		c-0.5,0.4-1.2,0.7-1.7,1.1c-0.2,0.1-0.2,0.2-0.2,0.4c0,0.9,0,1.7-0.1,2.7c0-0.1-0.1-0.1-0.1-0.2c-0.2-0.6-0.5-1.4-0.6-2
		c-0.1-0.2-0.1-0.2-0.3-0.2c-0.3,0.1-0.7,0-0.9,0.2s-0.3,0.5-0.5,0.8c-0.5,1.1-1.3,2.1-2.5,2.6c-0.5,0.2-1,0.3-1.6,0.5
		c0.3,0.1,0.5,0.3,0.8,0.5c2.8,1.5,5.7,3,8.5,4.5c0.3,0.1,0.5,0.3,0.7,0.4c0.1,0.1,0.3,0.1,0.5,0c0.6-0.1,1.4-0.2,2-0.3
		c0.8-0.2,1.6-0.3,2.5-0.5c0.9-0.4,1.5-1.1,2.1-1.9c0.5-0.6,0.9-1.4,1.4-2c0-0.1,0.1-0.1,0.2-0.2c-0.2,1-0.4,1.9-0.8,2.7
		c-0.5,0.8-1,1.6-1.6,2.3c0.4,0.3,0.7,0.5,1.2,0.8c2.1-5.2,5-9.9,8.4-14.3c-1.1-0.6-2.1-1.4-3.3-2.1c-0.3,0.4-0.5,0.7-0.8,1.1
		c-0.1-0.6-0.2-1.2-0.3-1.7c-0.5-3.1-1.1-6.2-1.8-9.2c-0.4-1.5-0.9-2.9-1.5-4.3c-0.4-0.9-0.7-1.8-0.9-2.8c0-0.1,0-0.2,0-0.2
		c0-0.5-0.2-1.1-0.5-1.6c-0.5-0.6-1-1.4-1.5-2c-0.4-0.4-0.4-0.8-0.5-1.3c0-0.5-0.1-1.2-0.2-1.7c-0.1-0.5-0.2-0.5-0.6-0.5
		c-1.1,0-2,0.3-2.8,1c-0.4,0.4-0.5,0.7-0.6,1.3c-0.4,2.1,0.2,4,1.3,5.9c0.1,0.2,0.2,0.4,0.1,0.6c-0.1,0.5-0.1,1.1-0.3,1.6
		c-0.2,0.6-0.5,1.3-0.6,1.9c-0.5,1.4-0.7,2.7-0.9,4.2c-0.1,1.1-0.3,2.1-0.5,3.2c-0.1,0.5-0.1,0.9-0.1,1.4c-0.2,0.3-0.1,0.5,0,0.8
		c0,0.1,0,0.3,0,0.4c-0.2,0.2-0.2,1.4,0,1.6c0.1,1.2,0.2,2.3,0.5,3.4c0.4,1.6,1,2.9,2.2,4.1c0.4,0.4,0.7,0.6,1.1,0.9c0,0,0,0,0,0.1
		C54.1,241.1,52.9,239.9,51.9,238.4z M65.2,243.2c2.4,1.5,4.7,2.9,7,4.4c0.6-0.9,1.2-1.7,1.7-2.6c1.2-1.9,2.1-3.9,2.7-6
		c0.1-0.3,0-0.4-0.2-0.5c-2-1.1-3.9-2.2-5.9-3.3C68.5,237.6,66.5,240,65.2,243.2z M50.8,230c-0.1-0.5-0.4-1-0.8-1.2
		c-1.3-0.6-2.6-1.4-3.9-2c-1.5-0.6-2.9-1.2-4.4-1.8c-0.3-0.1-0.5-0.1-0.8,0c-0.7,0.4-1.3,0.8-1.7,1.5c-0.2,0.3-0.2,0.5-0.2,0.9
		c0,0.7,0.2,1.5,0.7,2c0.2,0.2,0.4,0.3,0.5,0.5c2.7,1.3,5.3,2.5,8.1,3.5c0.6,0.3,1.2,0.2,1.6-0.4c0.2-0.2,0.3-0.3,0.5-0.5
		c0.5-0.5,0.7-0.9,0.6-1.6C50.8,230.6,50.8,230.3,50.8,230z M51.6,223.3c-0.9-0.5-1.7-1.1-2.7-1.6c-1.6-0.7-3.1-1.4-4.7-2
		c-0.9-0.4-1.6-0.2-2.1,0.5c-0.7,0.8-1,1.8-0.8,3c0.1,0.4,0.2,0.5,0.5,0.7c2.7,1.3,5.3,2.7,8.1,3.7c0.2,0.1,0.4,0.1,0.5,0.2
		c0.5,0.2,0.7,0,1-0.3c0.5-0.6,0.9-1.7,0.9-2.8C52.3,224.1,52,223.7,51.6,223.3z M37.1,233.7c0.1,0.5,0.3,0.8,0.8,1
		c1.5,0.6,2.9,1.3,4.5,1.8c1.1,0.5,2.3,0.8,3.4,1.3c0.2,0.1,0.4,0.1,0.6,0.2c0.9,0.3,1.6-0.1,2.3-0.8c0.3-0.3,0.4-0.7,0.3-1.1
		c0-0.4-0.1-0.7-0.3-1.1c-0.1-0.4-0.4-0.6-0.8-0.8c-2.6-1.1-5-2.3-7.5-3.5c-0.5-0.2-0.9-0.5-1.5-0.4c-0.9,0-1.7,0.7-1.8,1.6
		c0,0.3,0,0.5-0.1,0.7C37,233,37,233.4,37.1,233.7z M40.1,240.7c0.7,0.4,1.6,0.8,2.4,1.1c1.1,0.4,1.7,0.3,2.6-1
		c0.2-0.4,0.3-0.7,0.4-1.2c0.1-0.4-0.1-0.6-0.5-0.8c-0.8-0.5-1.6-0.9-2.5-1.4c-1.4-0.6-2.8-1.3-4.3-1.9c-0.5-0.2-0.9-0.1-1.3,0.3
		c-1.1,1.1-1.3,2.6-0.3,3.8c0.6,0.7,1.3,1.4,2,2c0.2,0.2,0.4,0.3,0.5,0.3c0.1,0,0.3,0,0.3,0c0.1,0,0.1-0.2,0-0.3
		c-0.1-0.3-0.3-0.5-0.4-0.8c-0.1-0.2-0.3-0.4-0.4-0.6c0,0,0,0,0.1-0.1C39.3,240.2,39.8,240.5,40.1,240.7z"/>
	<path class="st0" d="M47.6,205.5c0.1,0,0.2,0,0.3,0c0.2,0,0.5-0.1,0.6-0.1c0.5,0,1.2,0,1.7,0c0.1,0,0.2-0.1,0.2-0.1
		c0.1-0.2,0.1-0.2,0.4-0.1c0.2,0.1,0.5,0.1,0.6,0.1c0.5,0,0.8,0,1.3,0c0.2,0,0.3,0,0.5,0s0.5-0.1,0.5,0.2h0.1c0.4,0,0.7,0.1,1.2,0.1
		c0.2,0,0.4-0.1,0.6,0c0.4,0,0.7,0.1,1.1,0.1c0.2,0,0.3,0.1,0.3,0.3c-1-0.1-1.9-0.3-2.9-0.4c-1.6-0.2-3.1-0.1-4.8,0.1
		c-0.7,0.1-1.5,0.2-2.3,0.3C47.1,205.5,47.3,205.5,47.6,205.5z M48,205.5L48,205.5L48,205.5L48,205.5C48.1,205.5,48,205.5,48,205.5z
		 M56.1,205.6C56.1,205.5,56.1,205.5,56.1,205.6L56.1,205.6L56.1,205.6L56.1,205.6z M53.2,205.2C53.2,205.2,53.3,205.3,53.2,205.2
		C53.3,205.2,53.3,205.2,53.2,205.2C53.3,205.2,53.3,205.2,53.2,205.2L53.2,205.2z M48.5,205.5L48.5,205.5L48.5,205.5
		C48.4,205.5,48.4,205.5,48.5,205.5L48.5,205.5z M50.8,205.2C50.8,205.2,50.8,205.2,50.8,205.2C50.8,205.2,50.8,205.2,50.8,205.2
		C50.8,205.2,50.8,205.2,50.8,205.2C50.8,205.2,50.8,205.2,50.8,205.2z"/>
	<path class="st0" d="M37.2,209.9c1.2-0.6,2.3-1.4,3.5-2c0.7-0.4,1.5-0.6,2.2-1c-0.3-0.1-0.5-0.1-0.8,0.2c-0.1,0.1-0.3,0.1-0.4,0.1
		s-0.3,0.1-0.4,0.1c-0.1,0-0.2,0-0.3,0c0,0.4-0.3,0.4-0.5,0.4c-0.1,0-0.3,0.1-0.3,0.2c-0.1,0.2-0.3,0.2-0.5,0.3
		c-0.1,0-0.2,0.1-0.3,0.1c-0.2,0.3-0.4,0.4-0.6,0.3c-0.1,0.2-0.1,0.5-0.5,0.4c-0.2,0.4-0.3,0.5-0.6,0.4c-0.3-0.1-0.4,0.1-0.3,0.4
		C37.3,209.5,37.2,209.7,37.2,209.9z"/>
	<path class="st0" d="M26.2,235.7c-0.1-0.1-0.1-0.3,0-0.5s0-0.5,0-0.6c-0.1-0.9-0.2-1.7-0.2-2.7c0-0.1,0-0.2,0-0.3
		c0-0.3-0.1-0.5-0.1-0.7c0-0.5,0.1-1,0.2-1.5c0.1-0.5,0.1-0.9,0.2-1.4c0-0.5,0-0.9,0.1-1.4c0-0.2,0-0.4,0.3-0.5c-0.1,1-0.3,2-0.4,3
		c-0.2,1.6-0.1,3.1,0.1,4.7c0.1,0.7,0.2,1.6,0.3,2.3C26.3,236.1,26.3,235.8,26.2,235.7z M26,231.4C26.1,231.4,26.1,231.4,26,231.4
		c0-0.1,0-0.1,0-0.2l0,0C26,231.2,26,231.3,26,231.4z"/>
	<path class="st0" d="M68.8,211.5c0.6,0.5,1.3,1.2,1.9,1.7h0.1l0,0h-0.1c0.4,0.4,0.7,0.8,1.1,1.2c0-0.3,0-0.5-0.4-0.7
		c-0.1,0-0.2-0.1-0.3-0.2c0,0,0,0,0.1-0.1c0.1,0,0.1,0,0.2,0v-0.1c-0.1,0-0.2,0-0.4,0c0,0,0,0,0.1,0c-0.1-0.1-0.3-0.2-0.4-0.4
		c0-0.1-0.1-0.1-0.1-0.2c-0.1-0.1-0.1-0.3-0.3-0.2h-0.1c0-0.2-0.4-0.4-0.4-0.5c0-0.3-0.3-0.2-0.4-0.3
		C69.4,211.5,69.3,211.5,68.8,211.5z"/>
	<path class="st0" d="M61.2,206.9c1,0.5,2,0.9,3,1.4c0.4,0.2,0.7,0.4,1,0.5c0-0.1,0-0.2,0-0.3c-0.3,0-0.6-0.1-0.7-0.5
		c0-0.1-0.1-0.1-0.2-0.1c-0.2,0-0.3-0.1-0.5-0.1c-0.1,0-0.2-0.2-0.3-0.3c-0.3,0.1-0.5-0.1-0.7-0.3c-0.2-0.2-0.5-0.1-0.7-0.2
		c-0.1,0-0.2,0-0.2-0.1C61.7,206.8,61.5,206.8,61.2,206.9z"/>
	<path class="st0" d="M57.9,205.7c0.3,0,0.5-0.2,0.6,0.3l0,0c0.4,0,0.6,0.1,1,0.1c0.2,0,0.4,0,0.4,0.2c0.1,0.3,0.2,0.3,0.3,0.3
		c0.3,0,0.5,0,0.7,0c0.1,0,0.2,0,0.3,0c0,0.2,0,0.3,0,0.4c-0.5-0.2-1.2-0.4-1.7-0.5c-0.8-0.2-1.6-0.5-2.5-0.6
		C57.3,205.7,57.6,205.7,57.9,205.7z M60.8,206.7L60.8,206.7L60.8,206.7L60.8,206.7L60.8,206.7z"/>
	<path class="st0" d="M42.9,206.9c1.2-0.4,2.3-0.6,3.5-1c0.3-0.1,0.5-0.1,0.7-0.2c-0.4,0-0.7,0-1.1,0v0.1c-0.1,0-0.1,0-0.2,0
		s-0.3-0.1-0.4-0.1v0.1c0,0.1,0.1,0.1,0.1,0.2c-0.5,0.2-0.8,0.2-1.3,0.1c0.1,0,0.2,0.1,0.3,0.2c-0.3,0.1-0.5,0.2-0.8,0.3
		c-0.1,0-0.2,0-0.3,0c-0.2,0-0.5-0.2-0.4,0.3C43,206.8,42.9,206.9,42.9,206.9z"/>
	<path class="st0" d="M26.6,226.3c0.2-0.8,0.4-1.6,0.6-2.4c0.3-1,0.6-1.9,1-2.9c-0.1,0.2-0.3,0.4-0.3,0.5c-0.1,0.4-0.3,0.5-0.5,0.5
		c0,0.2,0,0.4-0.1,0.5c-0.2,0.6-0.4,1.3-0.5,1.8c-0.1,0.3-0.3,0.5-0.3,0.8C26.5,225.7,26.6,226,26.6,226.3z"/>
	<path class="st0" d="M58.9,212.8C58.9,212.8,58.9,212.7,58.9,212.8c-0.6-0.5-0.7-1.1-0.7-1.7c0-0.5-0.1-1.1-0.2-1.6
		c0,0.1-0.1,0.2-0.1,0.3c0,0.5,0.1,1,0.1,1.5c0,0.4,0.1,0.6,0.1,1c0.2,0,0.5,0.4,0.4,0.6C58.6,212.8,58.8,212.8,58.9,212.8z"/>
	<path class="st0" d="M35.5,211.3c0.6-0.5,1.2-0.9,1.8-1.4c-0.4-0.1-0.6,0.1-0.7,0.4c-0.1,0-0.3,0-0.4,0c0,0.3,0,0.5-0.3,0.4
		l-0.1,0.1c-0.1,0.1-0.2,0.2-0.3,0.3C35.4,211.1,35.2,211.2,35.5,211.3z"/>
	<path class="st0" d="M66.9,209.9c0.6,0.5,1.3,1,1.9,1.5c0-0.1,0-0.2-0.1-0.3c-0.2-0.2-0.4-0.3-0.5-0.5c-0.1-0.1-0.2-0.1-0.2-0.2
		c0-0.2-0.1-0.2-0.3-0.2c-0.1,0-0.1,0-0.2-0.1C67.4,209.9,67.1,209.9,66.9,209.9z"/>
	<path class="st0" d="M65.2,208.9c0.5,0.4,1.1,0.7,1.6,1c0.1-0.3-0.1-0.4-0.4-0.4c0-0.3-0.1-0.4-0.4-0.4c-0.2,0-0.3,0-0.4-0.2
		C65.7,208.9,65.4,208.9,65.2,208.9z"/>
	<path class="st0" d="M57.5,208.7c-0.9-0.3-1.8-0.4-2.8-0.1c0.2,0,0.3,0.1,0.5,0c0.7-0.2,1.5-0.1,2.1,0.1
		C57.4,208.7,57.4,208.7,57.5,208.7z"/>
	<path class="st0" d="M27.1,238.4c-0.2-0.7-0.4-1.5-0.5-2.2c0,0.4,0,0.6,0.1,1l0,0l0,0c0.1,0.4,0.3,0.7,0.4,1
		C27,238.2,27.1,238.3,27.1,238.4z"/>
	<path class="st0" d="M52.3,250.4c1.1,0,2.2,0,3.2,0c-0.1,0-0.2-0.1-0.2-0.1c-0.9,0-1.9,0-2.8,0C52.4,250.3,52.3,250.4,52.3,250.4z"
		/>
	<path class="st0" d="M52,233.1c0-0.5,0-1,0-1.6C51.9,231.8,51.9,232.9,52,233.1z"/>
	<path class="st0" d="M54.7,208.6c-0.4,0.2-0.7,0.4-1.1,0.5c0.2,0,0.3,0,0.4-0.1c0.1-0.1,0.3-0.2,0.4-0.1
		C54.6,208.8,54.6,208.8,54.7,208.6z"/>
	<path class="st0" d="M58,209.4c0-0.1,0-0.2,0-0.3c0-0.3-0.2-0.5-0.5-0.5c0,0.1,0,0.1-0.1,0.2h0.1c0.1,0.2,0.2,0.3,0.3,0.5
		C57.9,209.3,58,209.3,58,209.4z"/>
	<path class="st0" d="M77.9,232.9c0,0.5-0.1,1-0.1,1.5c0-0.2,0.1-0.3,0.1-0.5C77.9,233.6,77.9,233.2,77.9,232.9z"/>
	<path class="st0" d="M50.9,257.2c-0.5,0-1.1-0.1-1.6-0.1c0.2,0,0.3,0.1,0.5,0.1C50.2,257.2,50.6,257.2,50.9,257.2z"/>
	<path class="st0" d="M71.8,214.5c0.1,0.1,0.2,0.2,0.3,0.4C72.3,214.6,72.2,214.5,71.8,214.5z"/>
	<path class="st0" d="M52.8,257.2c-0.4,0-0.7,0-1.1,0C52,257.2,52.4,257.2,52.8,257.2z"/>
	<path class="st0" d="M52.1,231.3c0-0.3,0-0.5,0-0.8C51.9,230.7,52,231,52.1,231.3z"/>
	<path class="st0" d="M53.6,209c-0.1,0.1-0.2,0.1-0.3,0.2c0.1,0,0.2,0,0.3,0l0,0C53.6,209.1,53.6,209.1,53.6,209z"/>
	<path class="st0" d="M48.9,257c-0.2,0-0.3-0.1-0.5-0.1C48.6,257,48.7,257,48.9,257z"/>
	<path class="st0" d="M49.3,257.1c-0.2,0-0.3,0-0.5-0.1C49,257,49.2,257.1,49.3,257.1z"/>
	<path class="st0" d="M53.6,209.2c0,0.1,0,0.1,0,0.2V209.2C53.7,209.2,53.6,209.2,53.6,209.2L53.6,209.2z"/>
	<path class="st0" d="M53.3,257.2c-0.1,0-0.1,0-0.2,0C53.2,257.2,53.3,257.2,53.3,257.2z"/>
	<path class="st0" d="M77.9,232.6L77.9,232.6L77.9,232.6L77.9,232.6z"/>
	<path class="st0" d="M58.2,244.1c0.2-0.1,0.5-0.1,0.6-0.2c1.5-0.6,2.7-1.6,3.7-2.7c0.6-0.8,0.9-1.8,1-2.8c0.1-0.5,0.1-1,0.1-1.6
		c-0.2,0.4-0.3,0.7-0.5,1.2c-0.5,1.5-1.3,2.7-2.4,3.8C59.9,242.4,59.1,243.2,58.2,244.1L58.2,244.1z"/>
	<path class="st0" d="M55.8,241.7c0.1,0,0.1,0,0.2,0l0,0C56,241.6,55.9,241.6,55.8,241.7C55.9,241.6,55.9,241.6,55.8,241.7z"/>
	<polygon class="st0" points="58.2,244.2 58.2,244.2 58.2,244.1 	"/>
	<path class="st0" d="M48.1,205.5L48.1,205.5L48.1,205.5C48,205.6,48.1,205.6,48.1,205.5C48.1,205.6,48.1,205.5,48.1,205.5z"/>
	<path class="st0" d="M56,205.6L56,205.6L56,205.6C56.1,205.5,56,205.5,56,205.6C56,205.5,56,205.5,56,205.6z"/>
	<path class="st0" d="M53.3,205.2C53.2,205.2,53.2,205.2,53.3,205.2C53.2,205.2,53.3,205.3,53.3,205.2L53.3,205.2L53.3,205.2z"/>
	<path class="st0" d="M48.4,205.5C48.5,205.5,48.5,205.5,48.4,205.5C48.5,205.5,48.5,205.5,48.4,205.5
		C48.5,205.5,48.5,205.5,48.4,205.5L48.4,205.5z"/>
	<path class="st0" d="M50.8,205.2L50.8,205.2L50.8,205.2L50.8,205.2L50.8,205.2z"/>
	<path class="st0" d="M26,231.2c0,0.1,0,0.1,0,0.2l0,0C26.1,231.3,26.1,231.2,26,231.2C26.1,231.2,26.1,231.2,26,231.2z"/>
	<path class="st0" d="M70.7,213.2L70.7,213.2L70.7,213.2L70.7,213.2L70.7,213.2z"/>
	<path class="st0" d="M60.8,206.7L60.8,206.7L60.8,206.7L60.8,206.7L60.8,206.7z"/>
	<path class="st0" d="M26.6,237.2C26.6,237.1,26.6,237.1,26.6,237.2C26.6,237.1,26.6,237.1,26.6,237.2L26.6,237.2z"/>
</g>
<g>
	<path class="st0" d="M109.4,218.9c1.8,1.3,3.1,3.1,3.8,5.3v-7h4.5v27.1h-4.5v-7c-0.7,2.2-2,3.9-3.8,5.3c-1.8,1.3-4,2-6.7,2
		c-2.4,0-4.6-0.5-6.4-1.6c-1.9-1.1-3.4-2.7-4.4-4.8c-1.1-2.1-1.6-4.6-1.6-7.4s0.5-5.3,1.6-7.4s2.6-3.8,4.4-4.8
		c1.9-1.1,4-1.6,6.4-1.6C105.4,216.9,107.7,217.6,109.4,218.9z M97.4,223.6c-1.6,1.7-2.5,4.2-2.5,7.3c0,3.1,0.8,5.5,2.5,7.3
		c1.6,1.7,3.8,2.7,6.7,2.7c1.7,0,3.4-0.4,4.8-1.3c1.4-0.8,2.5-2,3.3-3.5c0.8-1.5,1.2-3.2,1.2-5.2s-0.4-3.8-1.2-5.2
		c-0.8-1.6-1.9-2.7-3.3-3.5c-1.4-0.8-3-1.2-4.8-1.2C101.3,220.9,99.1,221.8,97.4,223.6z"/>
	<path class="st0" d="M145.5,219.7c2.3,1.8,3.7,4.3,4.2,7.4H145c-0.4-1.9-1.2-3.5-2.7-4.6c-1.5-1.1-3.3-1.6-5.5-1.6
		c-1.6,0-3,0.4-4.3,1.1c-1.3,0.7-2.4,1.8-3.1,3.3c-0.8,1.5-1.2,3.4-1.2,5.6s0.4,4,1.2,5.6c0.8,1.5,1.8,2.7,3.1,3.3
		c1.3,0.7,2.7,1.1,4.3,1.1c2.2,0,4-0.5,5.5-1.6c1.5-1.1,2.4-2.7,2.7-4.6h4.8c-0.5,3.1-1.9,5.6-4.2,7.4c-2.3,1.8-5.1,2.7-8.6,2.7
		c-2.6,0-4.9-0.5-7-1.6c-2-1.1-3.6-2.7-4.8-4.8c-1.1-2.1-1.7-4.6-1.7-7.4c0-2.8,0.5-5.3,1.7-7.4c1.1-2.1,2.7-3.8,4.8-4.8
		c2-1.1,4.3-1.6,7-1.6C140.4,216.9,143.3,217.8,145.5,219.7z"/>
	<path class="st0" d="M174.9,218.6c2,1.1,3.7,2.7,4.8,4.8c1.2,2.1,1.7,4.6,1.7,7.4c0,2.8-0.5,5.3-1.7,7.4s-2.7,3.7-4.8,4.8
		c-2.1,1.1-4.4,1.6-7,1.6s-4.9-0.5-7-1.6c-2.1-1.1-3.7-2.7-4.8-4.8c-1.2-2.1-1.7-4.6-1.7-7.4c0-2.8,0.5-5.3,1.7-7.4
		c1.2-2.1,2.8-3.8,4.8-4.8c2-1.1,4.4-1.6,7-1.6C170.5,216.9,172.8,217.4,174.9,218.6z M163.5,221.9c-1.4,0.7-2.5,1.8-3.3,3.3
		c-0.8,1.5-1.3,3.4-1.3,5.6s0.5,4,1.3,5.5c0.8,1.5,1.9,2.7,3.3,3.3c1.4,0.7,2.8,1.1,4.5,1.1s3.1-0.4,4.5-1.1
		c1.4-0.7,2.5-1.8,3.3-3.3c0.8-1.5,1.3-3.3,1.3-5.5s-0.5-4-1.3-5.6c-0.8-1.5-1.9-2.7-3.3-3.3c-1.4-0.7-2.8-1.1-4.5-1.1
		C166.3,220.9,164.8,221.2,163.5,221.9z"/>
	<path class="st0" d="M191.8,207.8v36.6h-4.5v-36.6C187.4,207.8,191.8,207.8,191.8,207.8z"/>
	<path class="st0" d="M216.9,218.9c1.8,1.3,3.1,3.1,3.8,5.3v-7h4.5v27.1h-4.5v-7c-0.7,2.2-2,3.9-3.8,5.3c-1.8,1.3-4,2-6.7,2
		c-2.4,0-4.6-0.5-6.4-1.6c-1.9-1.1-3.4-2.7-4.4-4.8c-1.1-2.1-1.6-4.6-1.6-7.4s0.5-5.3,1.6-7.4c1.1-2.1,2.6-3.8,4.4-4.8
		c1.9-1.1,4-1.6,6.4-1.6C212.9,216.9,215.1,217.6,216.9,218.9z M204.8,223.6c-1.6,1.7-2.5,4.2-2.5,7.3c0,3.1,0.8,5.5,2.5,7.3
		c1.6,1.7,3.8,2.7,6.7,2.7c1.7,0,3.4-0.4,4.8-1.3c1.4-0.8,2.5-2,3.3-3.5c0.8-1.5,1.2-3.2,1.2-5.2s-0.4-3.8-1.2-5.2
		c-0.8-1.6-1.9-2.7-3.3-3.5c-1.4-0.8-3-1.2-4.8-1.2C208.8,220.9,206.5,221.8,204.8,223.6z"/>
	<path class="st0" d="M235.7,239.1v5.3h-5.4v-5.3H235.7z"/>
	<path class="st0" d="M281.9,219.8c1.9,2,2.9,4.9,2.9,8.8v15.7h-4.5v-15.3c0-2.7-0.6-4.7-1.9-6.1c-1.3-1.4-3.1-2.1-5.4-2.1
		c-2.4,0-4.3,0.8-5.7,2.4c-1.5,1.6-2.1,3.8-2.1,6.9v14.4h-4.7v-15.4c0-2.7-0.6-4.7-2-6.1c-1.3-1.4-3.1-2.1-5.3-2.1
		c-2.4,0-4.3,0.8-5.8,2.4s-2.1,3.8-2.1,6.9v14.4h-4.5v-27.2h4.5v6.2c0.6-2.1,1.8-3.8,3.6-4.9c1.7-1.1,3.7-1.7,5.9-1.7
		c2.3,0,4.3,0.5,6,1.7c1.7,1.2,2.9,2.9,3.7,5.1c0.7-2.2,2-3.9,3.8-5.1c1.7-1.2,3.8-1.8,6-1.8C277.4,216.8,279.9,217.8,281.9,219.8z"
		/>
	<path class="st0" d="M316.4,231.8h-21.7c0.1,3.1,1,5.4,2.7,7c1.6,1.6,3.7,2.3,6.1,2.3c2.2,0,4-0.5,5.5-1.6c1.5-1.1,2.4-2.6,2.7-4.4
		h4.8c-0.4,1.9-1.1,3.6-2.2,5c-1.1,1.5-2.7,2.7-4.4,3.5c-1.8,0.8-3.8,1.3-6.1,1.3c-2.6,0-4.9-0.5-7-1.6c-2-1.1-3.6-2.7-4.8-4.8
		c-1.1-2.1-1.7-4.6-1.7-7.4s0.5-5.3,1.7-7.4c1.1-2.1,2.7-3.8,4.8-4.8c2-1.1,4.3-1.6,7-1.6c2.7,0,4.9,0.5,6.9,1.6
		c1.9,1.1,3.5,2.7,4.5,4.5c1,1.9,1.6,3.9,1.6,6.2C316.6,230.3,316.5,231.1,316.4,231.8z M311,224.6c-0.7-1.4-1.8-2.4-3.1-3
		c-1.3-0.6-2.7-1-4.3-1c-2.5,0-4.6,0.7-6.2,2.3s-2.6,3.8-2.7,6.8h17.4C312.1,227.6,311.9,226,311,224.6z"/>
</g>
</svg>
