<?xml version="1.0" encoding="utf-8"?>
<!-- Generator: Adobe Illustrator 23.0.1, SVG Export Plug-In . SVG Version: 6.00 Build 0)  -->
<svg version="1.1" id="Layer_1" xmlns="http://www.w3.org/2000/svg" xmlns:xlink="http://www.w3.org/1999/xlink" x="0px" y="0px"
	 viewBox="0 0 1120.3 501" style="enable-background:new 0 0 1120.3 501;" xml:space="preserve">
<style type="text/css">
	.st0{fill:#6C63FF;}
</style>
<g>
	<path class="st0" d="M274.4,250.6c0.8-10,4.2-19.1,10.1-27.1c5.1-7,11.8-12.3,19.8-15.9c5.3-2.5,11-4,16.8-4.5
		c2.7-0.3,5.3-0.3,8-0.2c9,0.7,17.4,3.3,24.9,8.1c6,3.8,11,8.8,14.9,14.8c4,6,6.6,12.6,7.8,19.8c0.3,1.7,0.5,3.5,0.7,5.1
		c0,0.2,0.2,0.5,0.2,0.7c0,2,0,4.2,0,6.1c-0.2,0.7-0.2,1.3-0.3,1.8c-0.3,4.3-1.3,8.5-2.8,12.5c-2.5,6.8-6.1,12.8-11.1,18.1
		c-7.3,7.6-16.1,12.6-26.4,14.9c-2,0.5-4,0.7-6,1c-0.2,0-0.3,0.2-0.3,0.2c-3,0-6.1,0-9.1,0c-0.2,0-0.3-0.2-0.5-0.2
		c-7.8-0.8-15.1-3.2-21.9-7.3c-4.5-2.7-8.5-6-11.8-10c-3.3-3.8-6-7.8-8.1-12.5c-2-4.3-3.5-9-4.2-13.8c-0.2-1.3-0.3-2.7-0.5-4.2
		c0-0.2,0-0.5-0.2-0.7c0-2.2,0-4.3,0-6.5C274.4,250.9,274.4,250.8,274.4,250.6z M328.9,214.6l0.2-0.2h-0.2v-0.2l0,0
		c0.3,0,0.5,0,0.7-0.2c0.2-0.2,0.5-0.3,0.7-0.2c0.3,0,0.5-0.2,0.5-0.5c0,0,0,0,0.2,0c0.3,0,0.5,0.2,0.8,0c1.3-0.3,2.7-0.2,3.8,0.2
		c0.2,0,0.2,0,0.3,0l0,0c0,0.2,0,0.2-0.2,0.3h0.2c0.2,0.3,0.3,0.5,0.5,0.8c0.3-0.2,0.5-0.2,0.5,0c0,0,0,0,0,0.2
		c0,0.2-0.2,0.3-0.2,0.5c0,0.8,0.2,1.8,0.2,2.7c0,0.7,0.2,1.2,0.2,1.8c0.3,0,0.8,0.7,0.7,1.2c0.2,0,0.5,0,0.7,0c1,1.3,2.2,2.7,3,4.2
		c0.5,0.7,0.5,1.7,0.8,2.5c1.2,3.7,2.5,7.1,3.7,10.8c1.7,5.5,3.2,11.1,4.3,16.8c0,0.2,0.2,0.3,0.3,0.5c2.2,1.5,4.5,3,6.6,4.5h0.2
		c0.5-0.5,1-1,1.3-1.5c0.2-0.3,0.5-0.3,0.8-0.2c4,2.2,7.8,4.3,11.8,6.3c0.2,0.2,0.3,0.2,0.7,0.3c0.3-1.8,0.7-3.5,0.8-5.1
		c0-0.3,0.2-0.5,0.2-0.8c0-0.7,0-1.2,0-1.8c0-0.2,0-0.3,0-0.5l0,0l0,0c0-2.2,0-4.3-0.2-6.5c-0.3-4.3-1.3-8.6-2.8-12.6
		c-1.8-4.7-4.3-9.1-7.5-13c0,0,0,0,0-0.2c0.2-0.5,0.2-0.7-0.5-0.7l0,0l0,0c0-0.5,0-1-0.7-1.3c-0.2,0-0.3-0.2-0.5-0.3
		c0,0,0,0,0.2-0.2c0.2,0,0.2,0,0.3,0v-0.2c-0.2,0-0.3,0-0.7,0c0,0,0,0,0.2,0c-0.2-0.2-0.5-0.3-0.7-0.7c0-0.2-0.2-0.2-0.2-0.3
		c-0.2-0.2-0.2-0.5-0.5-0.3h-0.2c0-0.3-0.7-0.7-0.7-0.8c0-0.5-0.5-0.3-0.7-0.5c-0.2-0.7-0.3-0.8-1.3-0.8c0,0,0,0-0.2-0.2
		c0-0.2,0-0.3-0.2-0.5c-0.3-0.3-0.7-0.5-1-0.8c-0.2-0.2-0.3-0.2-0.3-0.3c0-0.3-0.2-0.3-0.5-0.3c-0.2,0-0.2,0-0.3-0.2
		c-0.3-0.7-0.8-0.5-1.3-0.5l0,0l0,0c0.2-0.5-0.2-0.7-0.7-0.7c0-0.5-0.2-0.7-0.7-0.7c-0.3,0-0.5,0-0.7-0.3c0-0.2-0.5-0.2-0.8-0.2l0,0
		l0,0c0-0.2,0-0.3,0-0.5c-0.5,0-1.2-0.2-1.3-0.8c0-0.2-0.2-0.2-0.3-0.2c-0.3,0-0.5-0.2-0.8-0.2c-0.2,0-0.3-0.3-0.5-0.5
		c-0.5,0.2-0.8-0.2-1.3-0.5c-0.3-0.3-0.8-0.2-1.3-0.3c-0.2,0-0.3,0-0.3-0.2c-0.3-0.5-0.8-0.5-1.5-0.3l0,0c0-0.2,0-0.5,0-0.7
		c-0.2,0-0.3,0-0.5,0c-0.5,0-0.8,0-1.3,0c-0.2,0-0.5,0-0.5-0.3s-0.3-0.3-0.7-0.3c-0.7,0-1.2,0-1.8-0.2l0,0c-0.2-0.8-0.8-0.5-1.2-0.5
		c-0.5,0-1.2,0-1.7,0l0,0c0-0.3-0.2-0.5-0.5-0.5c-0.7,0-1.3-0.2-2-0.2c-0.3,0-0.7,0-1.2,0c-0.7,0-1.3,0-2.2-0.2c-0.2,0-0.2,0-0.2,0
		c-0.2-0.5-0.7-0.3-1-0.3c-0.3,0-0.5,0-0.8,0c-0.8,0-1.5,0-2.3,0c-0.3,0-0.8,0-1.2-0.2c-0.3-0.2-0.5,0-0.7,0.2
		c0,0.2-0.3,0.2-0.3,0.2c-1,0-2.2,0-3.2,0c-0.3,0-0.8,0.2-1.2,0.2c-0.2,0-0.3,0-0.5,0c-0.5,0-0.8,0-0.8,0.7l0,0c-0.7,0-1.3,0-2,0
		v0.2c-0.2,0-0.2,0-0.3,0c-0.2,0-0.5-0.2-0.7-0.2v0.2c0,0.2,0.2,0.2,0.2,0.3c-0.8,0.3-1.5,0.3-2.3,0.2c0.2,0,0.3,0.2,0.5,0.3
		c-0.5,0.2-1,0.3-1.5,0.5c-0.2,0-0.3,0-0.5,0c-0.3,0-0.8-0.3-0.7,0.5c0,0.2-0.2,0.2-0.2,0.3l0,0c-0.5-0.2-1-0.2-1.5,0.3
		c-0.2,0.2-0.5,0.2-0.7,0.2s-0.5,0.2-0.7,0.2l0,0c-0.2,0-0.3,0-0.5,0c0,0.7-0.5,0.7-0.8,0.7c-0.2,0-0.5,0.2-0.5,0.3
		c-0.2,0.3-0.5,0.3-0.8,0.5c-0.2,0-0.3,0.2-0.5,0.2c-0.3,0.5-0.7,0.7-1.2,0.5c-0.2,0.3-0.2,1-0.8,0.7c-0.3,0.3-0.5,0.5-1.2,0.3
		c-0.5-0.2-0.7,0.2-0.5,0.7c-0.5,0-0.7,0.2-0.7,0.7l0,0l0,0c-0.7-0.2-1.2,0.2-1.3,0.7c-0.2,0-0.5,0-0.7,0c0,0.5,0,0.8-0.5,0.7
		l-0.2,0.2c-0.2,0.2-0.3,0.3-0.5,0.5c-0.2,0.2-0.3,0.3,0,0.5c-2.2,1.8-4.2,3.8-6,6c-2.8,3.3-5.1,7.1-7,11.1
		c-0.2,0.2-0.2,0.3-0.3,0.7c-0.2,0.3-0.5,0.7-0.5,1c-0.2,0.7-0.5,1-0.8,1c0,0.3,0,0.7-0.2,0.8c-0.3,1.2-0.7,2.3-1,3.3
		c-0.2,0.5-0.5,1-0.5,1.5c-0.2,0.5,0,1.2,0,1.8l0,0c-0.3,0-0.3,0.5-0.3,0.7c-0.2,0.8-0.2,1.7-0.2,2.5c0,0.8-0.2,1.7-0.3,2.5
		c-0.2,0.8-0.2,1.8-0.3,2.7c0,0.5,0,0.8,0.2,1.3c0,0.2,0,0.3,0,0.5c0.2,1.7,0.3,3.2,0.3,4.8c0,0.3,0.2,1,0,1.2
		c-0.2,0.3-0.2,0.7,0,0.8c0.3,0.3,0.3,0.8,0.8,1l0,0c0,0.7,0,1.2,0.2,1.8l0,0c0.2,0.7,0.5,1.3,0.7,1.8c0,0.2,0.2,0.2,0.2,0.3
		c1.5,5.3,4,10.1,7.1,14.6c5,6.8,11.3,12,18.9,15.4c3.8,1.8,8,2.8,12.1,3.5c0.2,0,0.3,0,0.5,0c0.3,0,0.5,0.2,0.8,0.2l0,0
		c0.3,0,0.5,0,0.8,0.2l0,0c0.3,0,0.5,0.2,0.8,0.2c0.7,0,1.3,0,2.2,0c0.3,0,0.8,0,1.2,0c0.7,0,1.3,0,2,0c0.2,0,0.5,0,0.7,0
		s0.2,0,0.3,0c1-0.2,2-0.2,3.2-0.3c3.5-0.3,7-1.2,10.3-2.3c0.3-0.2,0.8-0.3,1.3-0.5c-0.8-0.7-1.5-1.2-2.2-1.7
		c-0.8-0.7-1.5-1.3-2.3-1.8c-0.3-0.2-0.3-0.3-0.2-0.7c0.3-0.8,0.5-1.7,0.8-2.5c0.2-0.3,0.2-0.5-0.2-0.7l-0.2-0.2
		c-0.7-0.5-1.3-1.3-2.2-1.5c-0.8-0.3-1.7,0-2.7-0.2c-0.5,0-1,0-1.5,0c-0.2,0-0.3-0.2-0.3-0.2c-1.7,0-3.5,0-5.1,0
		c-0.2,0-0.2,0-0.3,0.2c-1.8-1-3.7-2-5.6-2.8c-5.3-2.7-10.5-5.3-15.6-8.1c-1-0.5-2-1.5-2.8-2.2c-2.3-2-4.5-4.2-6.5-6.5
		c-1.5-1.8-1.7-3.8-0.7-6c0.3-0.8,1-1.5,1.5-2.3c0.2-0.2,0.2-0.3,0.2-0.5c-0.2-1.2-0.5-2.3-0.7-3.3c-0.2-2.3,0.8-4,2.7-5.3
		c0.5-0.3,1.2-0.7,1.5-1c-0.3-1.2-0.8-2.2-1-3.3c-0.3-1.5,0-3,1.2-4c1-0.8,2-1.3,3-2c0.3-0.2,0.5-0.3,0.3-0.7
		c-0.5-2.3-0.7-4.7,0.5-7c0.8-1.7,2.3-2.7,4.3-3.2c2.2-0.5,4.3-0.3,6.3,0.7c3.3,1.5,6.8,3.2,10.1,4.7c0,0,0.2,0,0.3,0
		c0.7-1.2,1.3-2.3,2-3.5c0.5-0.8,0.7-1.8,1-2.8c0.2-0.5,0-0.8-0.3-1.3c-1.8-2.8-2.7-6-2.5-9.5c0.2-2,1-3.8,2.8-5c0.2,0,0.3,0,0.5,0
		C328.9,214.4,328.9,214.6,328.9,214.6z M325.7,267.4c-0.3-0.3-0.5-0.8-0.7-1.2c-0.3,0.2-0.7,0.3-1,0.5c-1,0.7-2.2,1.3-3.2,2
		c-0.3,0.2-0.3,0.3-0.3,0.7c0,1.7,0,3.2-0.2,4.8c0-0.2-0.2-0.2-0.2-0.3c-0.3-1.2-0.8-2.5-1.2-3.7c-0.2-0.3-0.2-0.3-0.5-0.3
		c-0.5,0.2-1.3,0-1.7,0.3c-0.3,0.3-0.5,1-0.8,1.5c-1,2-2.3,3.8-4.5,4.7c-0.8,0.3-1.8,0.5-2.8,0.8c0.5,0.2,1,0.5,1.5,0.8
		c5.1,2.7,10.3,5.5,15.4,8.1c0.5,0.2,0.8,0.5,1.3,0.7c0.2,0.2,0.5,0.2,0.8,0c1.2-0.2,2.5-0.3,3.7-0.5c1.5-0.3,3-0.5,4.5-1
		c1.7-0.7,2.7-2,3.8-3.5c0.8-1.2,1.7-2.5,2.5-3.7c0-0.2,0.2-0.2,0.3-0.3c-0.3,1.8-0.7,3.5-1.5,4.8c-0.8,1.5-1.8,2.8-2.8,4.2
		c0.7,0.5,1.3,1,2.2,1.5c3.8-9.5,9.1-17.9,15.3-25.9c-2-1.2-3.8-2.5-6-3.8c-0.5,0.7-1,1.3-1.5,2c-0.2-1.2-0.3-2.2-0.5-3.2
		c-0.8-5.6-2-11.3-3.3-16.8c-0.7-2.7-1.7-5.3-2.7-7.8c-0.7-1.7-1.3-3.3-1.7-5.1c0-0.2,0-0.3,0-0.3c0-1-0.3-2-1-2.8
		c-1-1.2-1.8-2.5-2.7-3.7c-0.7-0.7-0.7-1.5-0.8-2.3c0-1-0.2-2.2-0.3-3.2c-0.2-0.8-0.3-1-1.2-1c-2,0-3.7,0.5-5.1,1.8
		c-0.7,0.7-1,1.3-1.2,2.3c-0.7,3.8,0.3,7.3,2.3,10.6c0.2,0.3,0.3,0.7,0.2,1.2c-0.2,1-0.2,2-0.5,3c-0.3,1.2-0.8,2.3-1.2,3.5
		c-0.8,2.5-1.3,5-1.7,7.6c-0.2,2-0.5,3.8-0.8,5.8c-0.2,0.8-0.2,1.7-0.2,2.5c-0.3,0.5-0.2,1,0,1.5c0,0.2,0,0.5,0,0.7
		c-0.3,0.3-0.3,2.5,0,2.8c0.2,2.2,0.3,4.2,0.8,6.1c0.7,2.8,1.8,5.3,4,7.5c0.7,0.7,1.3,1.2,2,1.7c0,0,0,0,0,0.2
		C329.9,272.2,327.6,270,325.7,267.4z M350,276c4.3,2.7,8.5,5.3,12.8,8c1.2-1.7,2.2-3.2,3.2-4.7c2.2-3.5,3.8-7.1,5-11
		c0.2-0.5,0-0.7-0.3-0.8c-3.7-2-7.1-4-10.8-6C356,265.9,352.3,270.4,350,276z M323.7,252.1c-0.2-1-0.7-1.8-1.5-2.2
		c-2.3-1.2-4.7-2.5-7.1-3.7c-2.7-1.2-5.3-2.2-8-3.3c-0.5-0.2-1-0.2-1.5,0c-1.3,0.7-2.3,1.5-3.2,2.7c-0.3,0.5-0.3,1-0.3,1.7
		c0,1.3,0.3,2.7,1.3,3.7c0.3,0.3,0.7,0.5,1,0.8c4.8,2.3,9.6,4.5,14.8,6.3c1.2,0.5,2.2,0.3,3-0.7c0.3-0.3,0.5-0.5,0.8-0.8
		c0.8-0.8,1.3-1.7,1.2-2.8C323.9,253.3,323.9,252.8,323.7,252.1z M325.2,240c-1.7-1-3.2-2-4.8-2.8c-2.8-1.3-5.6-2.5-8.5-3.7
		c-1.7-0.7-2.8-0.3-3.8,1c-1.3,1.5-1.8,3.3-1.5,5.5c0.2,0.7,0.3,1,1,1.3c4.8,2.3,9.6,4.8,14.6,6.6c0.3,0.2,0.7,0.2,1,0.3
		c0.8,0.3,1.3,0,1.8-0.5c1-1.2,1.7-3.2,1.7-5.1C326.6,241.5,326.1,240.7,325.2,240z M299,258.9c0.2,0.8,0.5,1.5,1.5,1.8
		c2.7,1.2,5.3,2.3,8.1,3.3c2,0.8,4.2,1.5,6.1,2.3c0.3,0.2,0.7,0.2,1.2,0.3c1.7,0.5,3-0.2,4.2-1.5c0.5-0.5,0.7-1.3,0.5-2
		c0-0.7-0.2-1.3-0.5-2c-0.2-0.7-0.7-1.2-1.5-1.5c-4.7-2-9.1-4.2-13.6-6.3c-0.8-0.3-1.7-0.8-2.7-0.7c-1.7,0-3.2,1.3-3.3,3
		c0,0.5,0,0.8-0.2,1.3C298.8,257.6,298.8,258.3,299,258.9z M304.5,271.5c1.3,0.7,2.8,1.5,4.3,2c2,0.7,3.2,0.5,4.7-1.8
		c0.3-0.7,0.5-1.3,0.7-2.2c0.2-0.7-0.2-1.2-0.8-1.5c-1.5-0.8-3-1.7-4.5-2.5c-2.5-1.2-5.1-2.3-7.8-3.5c-0.8-0.3-1.7-0.2-2.3,0.5
		c-2,2-2.3,4.7-0.5,6.8c1.2,1.3,2.3,2.5,3.7,3.7c0.3,0.3,0.7,0.5,1,0.5c0.2,0,0.5,0,0.5,0c0.2,0,0.2-0.3,0-0.5
		c-0.2-0.5-0.5-1-0.7-1.5c-0.2-0.3-0.5-0.7-0.7-1.2c0,0,0,0,0.2-0.2C303,270.7,303.8,271.2,304.5,271.5z"/>
	<path class="st0" d="M317.9,207.6c0.2,0,0.3,0,0.5,0c0.3,0,0.8-0.2,1.2-0.2c1,0,2.2,0,3.2,0c0.2,0,0.3-0.2,0.3-0.2
		c0.2-0.3,0.2-0.3,0.7-0.2c0.3,0.2,0.8,0.2,1.2,0.2c0.8,0,1.5,0,2.3,0c0.3,0,0.5,0,0.8,0c0.3,0,0.8-0.2,1,0.3h0.2
		c0.7,0,1.3,0.2,2.2,0.2c0.3,0,0.7-0.2,1.2,0c0.7,0,1.3,0.2,2,0.2c0.3,0,0.5,0.2,0.5,0.5c-1.8-0.2-3.5-0.5-5.3-0.7
		c-2.8-0.3-5.6-0.2-8.6,0.2c-1.3,0.2-2.7,0.3-4.2,0.5C317.1,207.6,317.4,207.6,317.9,207.6z M318.8,207.6L318.8,207.6h0.2l0,0
		C318.9,207.6,318.8,207.6,318.8,207.6z M333.4,207.8C333.4,207.6,333.4,207.6,333.4,207.8h-0.2l0,0H333.4z M328.2,207.1
		C328.2,207.1,328.4,207.3,328.2,207.1C328.4,207.1,328.4,207.1,328.2,207.1C328.4,207.1,328.4,207.1,328.2,207.1L328.2,207.1z
		 M319.6,207.6L319.6,207.6L319.6,207.6C319.4,207.6,319.4,207.6,319.6,207.6L319.6,207.6z M323.7,207.1
		C323.9,207.1,323.9,207.1,323.7,207.1C323.9,207.1,323.9,207.1,323.7,207.1C323.9,207.1,323.9,207.1,323.7,207.1
		C323.9,207.1,323.9,207.1,323.7,207.1z"/>
	<path class="st0" d="M299.2,215.7c2.2-1.2,4.2-2.5,6.3-3.7c1.3-0.7,2.7-1.2,4-1.8c-0.5-0.2-1-0.2-1.5,0.3c-0.2,0.2-0.5,0.2-0.7,0.2
		c-0.2,0-0.5,0.2-0.7,0.2s-0.3,0-0.5,0c0,0.7-0.5,0.7-0.8,0.7c-0.2,0-0.5,0.2-0.5,0.3c-0.2,0.3-0.5,0.3-0.8,0.5
		c-0.2,0-0.3,0.2-0.5,0.2c-0.3,0.5-0.7,0.7-1.2,0.5c-0.2,0.3-0.2,1-0.8,0.7c-0.3,0.7-0.5,0.8-1.2,0.7c-0.5-0.2-0.7,0.2-0.5,0.7
		C299.3,214.9,299.2,215.2,299.2,215.7z"/>
	<path class="st0" d="M279.2,262.4c-0.2-0.2-0.2-0.5,0-0.8c0.2-0.3,0-0.8,0-1.2c-0.2-1.7-0.3-3.2-0.3-4.8c0-0.2,0-0.3,0-0.5
		c0-0.5-0.2-0.8-0.2-1.3c0-0.8,0.2-1.8,0.3-2.7c0.2-0.8,0.2-1.7,0.3-2.5c0-0.8,0-1.7,0.2-2.5c0-0.3,0-0.7,0.5-0.8
		c-0.2,1.8-0.5,3.7-0.7,5.5c-0.3,2.8-0.2,5.6,0.2,8.5c0.2,1.3,0.3,2.8,0.5,4.2C279.4,263.2,279.4,262.7,279.2,262.4z M278.7,254.6
		C278.9,254.6,278.9,254.6,278.7,254.6c0-0.2,0-0.2,0-0.3l0,0C278.7,254.3,278.7,254.4,278.7,254.6z"/>
	<path class="st0" d="M356.5,218.6c1.2,1,2.3,2.2,3.5,3.2h0.2l0,0H360c0.7,0.7,1.3,1.5,2,2.2c0-0.5,0-1-0.7-1.3
		c-0.2,0-0.3-0.2-0.5-0.3c0,0,0,0,0.2-0.2c0.2,0,0.2,0,0.3,0v-0.2c-0.2,0-0.3,0-0.7,0c0,0,0,0,0.2,0c-0.2-0.2-0.5-0.3-0.7-0.7
		c0-0.2-0.2-0.2-0.2-0.3c-0.2-0.2-0.2-0.5-0.5-0.3h-0.2c0-0.3-0.7-0.7-0.7-0.8c0-0.5-0.5-0.3-0.7-0.5
		C357.6,218.6,357.5,218.6,356.5,218.6z"/>
	<path class="st0" d="M342.7,210.3c1.8,0.8,3.7,1.7,5.5,2.5c0.7,0.3,1.3,0.7,1.8,1c0-0.2,0-0.3,0-0.5c-0.5,0-1.2-0.2-1.3-0.8
		c0-0.2-0.2-0.2-0.3-0.2c-0.3,0-0.5-0.2-0.8-0.2c-0.2,0-0.3-0.3-0.5-0.5c-0.5,0.2-0.8-0.2-1.3-0.5c-0.3-0.3-0.8-0.2-1.3-0.3
		c-0.2,0-0.3,0-0.3-0.2C343.7,210.1,343.2,210.1,342.7,210.3z"/>
	<path class="st0" d="M336.7,208.1c0.5,0,1-0.3,1.2,0.5l0,0c0.7,0,1.2,0.2,1.8,0.2c0.3,0,0.7,0,0.7,0.3c0.2,0.5,0.3,0.5,0.5,0.5
		c0.5,0,0.8,0,1.3,0c0.2,0,0.3,0,0.5,0c0,0.3,0,0.5,0,0.7c-1-0.3-2.2-0.7-3.2-1c-1.5-0.3-3-0.8-4.5-1.2
		C335.5,208.1,336.2,208.1,336.7,208.1z M342,209.8L342,209.8L342,209.8L342,209.8L342,209.8z"/>
	<path class="st0" d="M309.5,210.3c2.2-0.7,4.2-1.2,6.3-1.8c0.5-0.2,1-0.2,1.3-0.3c-0.7,0-1.3,0-2,0v0.2c-0.2,0-0.2,0-0.3,0
		s-0.5-0.2-0.7-0.2v0.2c0,0.2,0.2,0.2,0.2,0.3c-0.8,0.3-1.5,0.3-2.3,0.2c0.2,0,0.3,0.2,0.5,0.3c-0.5,0.2-1,0.3-1.5,0.5
		c-0.2,0-0.3,0-0.5,0c-0.3,0-0.8-0.3-0.7,0.5C309.6,210.1,309.5,210.3,309.5,210.3z"/>
	<path class="st0" d="M279.9,245.5c0.3-1.5,0.7-2.8,1.2-4.3c0.5-1.8,1.2-3.5,1.8-5.3c-0.2,0.3-0.5,0.7-0.5,1c-0.2,0.7-0.5,1-0.8,1
		c0,0.3,0,0.7-0.2,0.8c-0.3,1.2-0.7,2.3-1,3.3c-0.2,0.5-0.5,1-0.5,1.5C279.7,244.3,279.9,244.8,279.9,245.5z"/>
	<path class="st0" d="M338.5,220.9c0,0,0-0.2-0.2-0.2c-1-0.8-1.2-1.8-1.2-3c0-1-0.2-2-0.3-3c0,0.2-0.2,0.3-0.2,0.5
		c0,0.8,0.2,1.8,0.2,2.7c0,0.7,0.2,1.2,0.2,1.8c0.3,0,0.8,0.7,0.7,1.2C338,220.9,338.4,220.9,338.5,220.9z"/>
	<path class="st0" d="M296,218.2c1.2-0.8,2.2-1.7,3.3-2.5c-0.7-0.2-1.2,0.2-1.3,0.7c-0.2,0-0.5,0-0.7,0c0,0.5,0,0.8-0.5,0.7
		l-0.2,0.2c-0.2,0.2-0.3,0.3-0.5,0.5C295.8,217.9,295.5,218.1,296,218.2z"/>
	<path class="st0" d="M353,215.7c1.2,0.8,2.3,1.8,3.5,2.7c0-0.2,0-0.3-0.2-0.5c-0.3-0.3-0.7-0.5-1-0.8c-0.2-0.2-0.3-0.2-0.3-0.3
		c0-0.3-0.2-0.3-0.5-0.3c-0.2,0-0.2,0-0.3-0.2C354,215.7,353.5,215.7,353,215.7z"/>
	<path class="st0" d="M350,213.9c1,0.7,2,1.3,2.8,1.8c0.2-0.5-0.2-0.7-0.7-0.7c0-0.5-0.2-0.7-0.7-0.7c-0.3,0-0.5,0-0.7-0.3
		C350.8,213.9,350.3,213.9,350,213.9z"/>
	<path class="st0" d="M336,213.4c-1.7-0.5-3.3-0.7-5.1-0.2c0.3,0,0.5,0.2,0.8,0c1.3-0.3,2.7-0.2,3.8,0.2
		C335.9,213.4,335.9,213.4,336,213.4z"/>
	<path class="st0" d="M280.7,267.4c-0.3-1.3-0.7-2.7-1-4c0,0.7,0,1.2,0.2,1.8l0,0l0,0c0.2,0.7,0.5,1.3,0.7,1.8
		C280.6,267.1,280.7,267.2,280.7,267.4z"/>
	<path class="st0" d="M326.6,289.1c2,0,4,0,5.8,0c-0.2,0-0.3-0.2-0.3-0.2c-1.7,0-3.5,0-5.1,0C326.7,289,326.6,289.1,326.6,289.1z"/>
	<path class="st0" d="M326.1,257.8c0-1,0-1.8,0-2.8C325.9,255.4,325.9,257.4,326.1,257.8z"/>
	<path class="st0" d="M330.9,213.2c-0.7,0.3-1.3,0.7-2,0.8c0.3,0,0.5,0,0.7-0.2c0.2-0.2,0.5-0.3,0.7-0.2
		C330.7,213.7,330.7,213.6,330.9,213.2z"/>
	<path class="st0" d="M336.9,214.7c0-0.2,0-0.3,0-0.5c0-0.5-0.3-0.8-0.8-0.8c0,0.2,0,0.2-0.2,0.3h0.2c0.2,0.3,0.3,0.5,0.5,0.8
		C336.7,214.6,336.9,214.6,336.9,214.7z"/>
	<path class="st0" d="M373.1,257.4c0,0.8-0.2,1.8-0.2,2.7c0-0.3,0.2-0.5,0.2-0.8C373.1,258.6,373.1,257.9,373.1,257.4z"/>
	<path class="st0" d="M324.1,301.4c-1,0-2-0.2-3-0.2c0.3,0,0.5,0.2,0.8,0.2C322.7,301.4,323.4,301.4,324.1,301.4z"/>
	<path class="st0" d="M361.9,224c0.2,0.2,0.3,0.3,0.5,0.7C362.8,224.2,362.6,224,361.9,224z"/>
	<path class="st0" d="M327.4,301.4c-0.7,0-1.3,0-2,0C326.1,301.4,326.7,301.4,327.4,301.4z"/>
	<path class="st0" d="M326.2,254.4c0-0.5,0-1,0-1.5C325.9,253.4,326.1,253.9,326.2,254.4z"/>
	<path class="st0" d="M328.9,214.1c-0.2,0.2-0.3,0.2-0.5,0.3c0.2,0,0.3,0,0.5,0l0,0C328.9,214.2,328.9,214.2,328.9,214.1z"/>
	<path class="st0" d="M320.4,301.1c-0.3,0-0.5-0.2-0.8-0.2C319.8,301.1,320.1,301.1,320.4,301.1z"/>
	<path class="st0" d="M321.1,301.3c-0.3,0-0.5,0-0.8-0.2C320.6,301.1,320.9,301.3,321.1,301.3z"/>
	<path class="st0" d="M328.9,214.4c0,0.2,0,0.2,0,0.3l0.2-0.2C329.1,214.4,328.9,214.4,328.9,214.4L328.9,214.4z"/>
	<path class="st0" d="M328.4,301.4c-0.2,0-0.2,0-0.3,0C328.2,301.4,328.4,301.4,328.4,301.4z"/>
	<path class="st0" d="M373.1,256.9L373.1,256.9L373.1,256.9L373.1,256.9z"/>
	<path class="st0" d="M337.2,277.7c0.3-0.2,0.8-0.2,1.2-0.3c2.7-1.2,4.8-2.8,6.6-5c1.2-1.5,1.7-3.3,1.8-5.1c0.2-0.8,0.2-1.8,0.2-2.8
		c-0.3,0.7-0.5,1.3-0.8,2.2c-0.8,2.7-2.3,4.8-4.3,6.8C340.4,274.7,338.9,276.2,337.2,277.7L337.2,277.7z"/>
	<path class="st0" d="M332.9,273.4c0.2,0,0.2,0,0.3,0l0,0C333.2,273.2,333,273.2,332.9,273.4C333,273.2,333,273.2,332.9,273.4z"/>
	<polygon class="st0" points="337.2,277.9 337.2,277.9 337.2,277.7 	"/>
	<path class="st0" d="M318.9,207.6h-0.2l0,0C318.8,207.8,318.9,207.8,318.9,207.6C318.9,207.8,318.9,207.6,318.9,207.6z"/>
	<path class="st0" d="M333.2,207.8h0.2l0,0C333.4,207.6,333.2,207.6,333.2,207.8C333.2,207.6,333.2,207.6,333.2,207.8z"/>
	<path class="st0" d="M328.4,207.1C328.2,207.1,328.2,207.1,328.4,207.1C328.2,207.1,328.4,207.3,328.4,207.1L328.4,207.1
		L328.4,207.1z"/>
	<path class="st0" d="M319.4,207.6C319.6,207.6,319.6,207.6,319.4,207.6C319.6,207.6,319.6,207.6,319.4,207.6
		C319.6,207.6,319.6,207.6,319.4,207.6L319.4,207.6z"/>
	<path class="st0" d="M323.9,207.1L323.9,207.1L323.9,207.1L323.9,207.1L323.9,207.1z"/>
	<path class="st0" d="M278.7,254.3c0,0.2,0,0.2,0,0.3l0,0C278.9,254.4,278.9,254.3,278.7,254.3C278.9,254.3,278.9,254.3,278.7,254.3
		z"/>
	<path class="st0" d="M360,221.7h0.2l0,0H360L360,221.7z"/>
	<path class="st0" d="M342,209.8L342,209.8L342,209.8L342,209.8L342,209.8z"/>
	<path class="st0" d="M279.9,265.2C279.9,265.1,279.9,265.1,279.9,265.2C279.9,265.1,279.9,265.1,279.9,265.2L279.9,265.2z"/>
</g>
<g>
	<path class="st0" d="M430.2,232c3.3,2.3,5.6,5.6,7,9.6V229h8.1v49.2h-8.1v-12.6c-1.3,4-3.7,7.1-7,9.6c-3.3,2.3-7.3,3.7-12.1,3.7
		c-4.3,0-8.3-1-11.6-3c-3.5-2-6.1-5-8-8.8c-2-3.8-3-8.3-3-13.5s1-9.6,3-13.5c2-3.8,4.7-6.8,8-8.8c3.5-2,7.3-3,11.6-3
		C422.9,228.4,427,229.7,430.2,232z M408.4,240.5c-3,3.2-4.5,7.6-4.5,13.3s1.5,10,4.5,13.3c3,3.2,7,4.8,12.1,4.8
		c3.2,0,6.1-0.7,8.6-2.3c2.5-1.5,4.5-3.7,6-6.3c1.5-2.7,2.2-5.8,2.2-9.5c0-3.7-0.7-6.8-2.2-9.5c-1.5-2.8-3.5-4.8-6-6.3
		c-2.5-1.5-5.5-2.2-8.6-2.2C415.4,235.7,411.4,237.3,408.4,240.5z"/>
	<path class="st0" d="M495.8,233.5c4.2,3.3,6.6,7.8,7.6,13.5h-8.6c-0.7-3.5-2.2-6.3-4.8-8.3s-6-3-10-3c-2.8,0-5.5,0.7-7.8,2
		c-2.3,1.3-4.3,3.3-5.6,6c-1.5,2.7-2.2,6.1-2.2,10.1c0,4,0.7,7.3,2.2,10.1c1.5,2.7,3.3,4.8,5.6,6c2.3,1.3,5,2,7.8,2c4,0,7.3-1,10-3
		c2.7-2,4.3-4.8,4.8-8.3h8.6c-1,5.6-3.5,10.1-7.6,13.5c-4.2,3.3-9.3,5-15.6,5c-4.7,0-9-1-12.6-3c-3.7-2-6.5-5-8.6-8.8
		c-2-3.8-3.2-8.3-3.2-13.5c0-5.1,1-9.6,3.2-13.5c2-3.8,5-6.8,8.6-8.8c3.7-2,7.8-3,12.6-3C486.5,228.4,491.7,230,495.8,233.5z"/>
	<path class="st0" d="M549.1,231.5c3.7,2,6.6,5,8.8,8.8c2.2,3.8,3.2,8.3,3.2,13.5c0,5.1-1,9.6-3.2,13.5c-2.2,3.8-5,6.6-8.8,8.8
		c-3.8,2-8,3-12.6,3s-9-1-12.6-3c-3.8-2-6.6-5-8.8-8.8c-2.2-3.8-3.2-8.3-3.2-13.5c0-5.1,1-9.6,3.2-13.5s5.1-6.8,8.8-8.8
		c3.7-2,8-3,12.6-3C541.1,228.4,545.3,229.4,549.1,231.5z M528.4,237.5c-2.5,1.3-4.5,3.3-6,6c-1.5,2.7-2.3,6.1-2.3,10.1
		c0,4,0.8,7.3,2.3,10c1.5,2.7,3.5,4.8,6,6c2.5,1.3,5.1,2,8.1,2c3,0,5.6-0.7,8.1-2s4.5-3.3,6-6c1.5-2.7,2.3-6,2.3-10
		c0-4-0.8-7.3-2.3-10.1c-1.5-2.7-3.5-4.8-6-6c-2.5-1.3-5.1-2-8.1-2C533.5,235.7,530.8,236.2,528.4,237.5z"/>
	<path class="st0" d="M579.8,211.9v66.4h-8.1v-66.4C571.7,211.9,579.8,211.9,579.8,211.9z"/>
	<path class="st0" d="M625.3,232c3.3,2.3,5.6,5.6,7,9.6V229h8.1v49.2h-8.1v-12.6c-1.3,4-3.7,7.1-7,9.6c-3.3,2.3-7.3,3.7-12.1,3.7
		c-4.3,0-8.3-1-11.6-3c-3.5-2-6.1-5-8-8.8c-2-3.8-3-8.3-3-13.5s1-9.6,3-13.5c2-3.8,4.7-6.8,8-8.8c3.5-2,7.3-3,11.6-3
		C618,228.4,622,229.7,625.3,232z M603.4,240.5c-3,3.2-4.5,7.6-4.5,13.3s1.5,10,4.5,13.3c3,3.2,7,4.8,12.1,4.8
		c3.2,0,6.1-0.7,8.6-2.3c2.5-1.5,4.5-3.7,6-6.3c1.5-2.7,2.2-5.8,2.2-9.5c0-3.7-0.7-6.8-2.2-9.5c-1.5-2.8-3.5-4.8-6-6.3
		s-5.5-2.2-8.6-2.2C610.6,235.7,606.4,237.3,603.4,240.5z"/>
	<path class="st0" d="M659.4,268.7v9.6h-9.8v-9.6H659.4z"/>
	<path class="st0" d="M743.3,233.7c3.5,3.7,5.3,9,5.3,15.9v28.6h-8.1v-27.7c0-4.8-1.2-8.5-3.5-11.1c-2.3-2.5-5.6-3.8-9.8-3.8
		c-4.3,0-7.8,1.5-10.3,4.3c-2.7,2.8-3.8,7-3.8,12.5v26.1h-8.5v-27.9c0-4.8-1.2-8.5-3.7-11.1c-2.3-2.5-5.6-3.8-9.6-3.8
		c-4.3,0-7.8,1.5-10.5,4.3c-2.7,2.8-3.8,7-3.8,12.5v26.1h-8.1V229h8.1v11.3c1.2-3.8,3.3-6.8,6.5-9c3.2-2,6.6-3.2,10.6-3.2
		c4.2,0,7.8,1,11,3.2c3.2,2.2,5.3,5.3,6.6,9.3c1.3-4,3.7-7.1,7-9.3c3.2-2.2,6.8-3.3,11-3.3C735.1,228.2,739.6,230,743.3,233.7z"/>
	<path class="st0" d="M806,255.4h-39.4c0.2,5.6,1.8,9.8,4.8,12.6c3,2.8,6.6,4.2,11.1,4.2c4,0,7.3-1,10-3c2.7-2,4.3-4.7,4.8-8h8.6
		c-0.7,3.5-2,6.5-4,9.1c-2,2.7-4.8,4.8-8,6.3c-3.3,1.5-7,2.3-11.1,2.3c-4.7,0-9-1-12.6-3s-6.5-5-8.6-8.8c-2-3.8-3.2-8.3-3.2-13.5
		s1-9.6,3.2-13.5c2-3.8,5-6.8,8.6-8.8s7.8-3,12.6-3c4.8,0,9,1,12.5,3s6.3,4.8,8.1,8.1c1.8,3.5,2.8,7.1,2.8,11.3
		C806.4,252.6,806.2,254.1,806,255.4z M796.2,242.3c-1.3-2.5-3.3-4.3-5.6-5.5s-5-1.8-7.8-1.8c-4.5,0-8.3,1.3-11.3,4.2
		s-4.7,6.8-5,12.3h31.6C798.2,247.8,797.7,244.8,796.2,242.3z"/>
</g>
</svg>
