<?xml version="1.0" encoding="utf-8"?>
<!-- Generator: Adobe Illustrator 23.0.1, SVG Export Plug-In . SVG Version: 6.00 Build 0)  -->
<svg version="1.1" id="Layer_1" xmlns="http://www.w3.org/2000/svg" xmlns:xlink="http://www.w3.org/1999/xlink" x="0px" y="0px"
	 viewBox="0 0 65.6 66.7" style="enable-background:new 0 0 65.6 66.7;" xml:space="preserve">
<style type="text/css">
	.st0{fill:#6C63FF;}
</style>
<g>
	<path class="st0" d="M2,30.7c0.5-6,2.5-11.5,6.1-16.3c3.1-4.2,7.1-7.4,11.9-9.6c3.2-1.5,6.6-2.4,10.1-2.7c1.6-0.2,3.2-0.2,4.8-0.1
		c5.4,0.4,10.5,2,15,4.9c3.6,2.3,6.6,5.3,9,8.9c2.4,3.6,4,7.6,4.7,11.9c0.2,1,0.3,2.1,0.4,3.1c0,0.1,0.1,0.3,0.1,0.4
		c0,1.2,0,2.5,0,3.7c-0.1,0.4-0.1,0.8-0.2,1.1c-0.2,2.6-0.8,5.1-1.7,7.5c-1.5,4.1-3.7,7.7-6.7,10.9c-4.4,4.6-9.7,7.6-15.9,9
		c-1.2,0.3-2.4,0.4-3.6,0.6c-0.1,0-0.2,0.1-0.2,0.1c-1.8,0-3.7,0-5.5,0c-0.1,0-0.2-0.1-0.3-0.1c-4.7-0.5-9.1-1.9-13.2-4.4
		c-2.7-1.6-5.1-3.6-7.1-6c-2-2.3-3.6-4.7-4.9-7.5c-1.2-2.6-2.1-5.4-2.5-8.3c-0.1-0.8-0.2-1.6-0.3-2.5C2,35.2,2,35,1.9,34.9
		c0-1.3,0-2.6,0-3.9C2,30.9,2,30.8,2,30.7z M34.8,9c0,0,0.1-0.1,0.1-0.1c0,0-0.1,0-0.1,0c0,0,0-0.1,0-0.1l0,0c0.2,0,0.3,0,0.4-0.1
		c0.1-0.1,0.3-0.2,0.4-0.1c0.2,0,0.3-0.1,0.3-0.3c0,0,0,0,0.1,0c0.2,0,0.3,0.1,0.5,0c0.8-0.2,1.6-0.1,2.3,0.1c0.1,0,0.1,0,0.2,0l0,0
		c0,0.1,0,0.1-0.1,0.2c0,0,0.1,0,0.1,0c0.1,0.2,0.2,0.3,0.3,0.5C39.5,9,39.6,9,39.6,9.1c0,0,0,0,0,0.1c0,0.1-0.1,0.2-0.1,0.3
		c0,0.5,0.1,1.1,0.1,1.6c0,0.4,0.1,0.7,0.1,1.1c0.2,0,0.5,0.4,0.4,0.7c0.1,0,0.3,0,0.4,0c0.6,0.8,1.3,1.6,1.8,2.5
		c0.3,0.4,0.3,1,0.5,1.5c0.7,2.2,1.5,4.3,2.2,6.5c1,3.3,1.9,6.7,2.6,10.1c0,0.1,0.1,0.2,0.2,0.3c1.3,0.9,2.7,1.8,4,2.7
		c0,0,0.1,0,0.1,0c0.3-0.3,0.6-0.6,0.8-0.9c0.1-0.2,0.3-0.2,0.5-0.1c2.4,1.3,4.7,2.6,7.1,3.8c0.1,0.1,0.2,0.1,0.4,0.2
		c0.2-1.1,0.4-2.1,0.5-3.1c0-0.2,0.1-0.3,0.1-0.5c0-0.4,0-0.7,0-1.1c0-0.1,0-0.2,0-0.3c0,0,0,0,0,0c0,0,0,0,0,0c0-1.3,0-2.6-0.1-3.9
		c-0.2-2.6-0.8-5.2-1.7-7.6c-1.1-2.8-2.6-5.5-4.5-7.8c0,0,0,0,0-0.1c0.1-0.3,0.1-0.4-0.3-0.4l0,0l0,0c0-0.3,0-0.6-0.4-0.8
		c-0.1,0-0.2-0.1-0.3-0.2c0,0,0,0,0.1-0.1c0.1,0,0.1,0,0.2,0c0,0,0-0.1,0-0.1c-0.1,0-0.2,0-0.4,0c0,0,0,0,0.1,0
		c-0.1-0.1-0.3-0.2-0.4-0.4c0-0.1-0.1-0.1-0.1-0.2c-0.1-0.1-0.1-0.3-0.3-0.2c0,0-0.1,0-0.1,0c0-0.2-0.4-0.4-0.4-0.5
		c0-0.3-0.3-0.2-0.4-0.3c-0.1-0.4-0.2-0.5-0.8-0.5c0,0,0,0-0.1-0.1c0-0.1,0-0.2-0.1-0.3c-0.2-0.2-0.4-0.3-0.6-0.5
		c-0.1-0.1-0.2-0.1-0.2-0.2c0-0.2-0.1-0.2-0.3-0.2c-0.1,0-0.1,0-0.2-0.1c-0.2-0.4-0.5-0.3-0.8-0.3l0,0l0,0c0.1-0.3-0.1-0.4-0.4-0.4
		c0-0.3-0.1-0.4-0.4-0.4c-0.2,0-0.3,0-0.4-0.2c0-0.1-0.3-0.1-0.5-0.1l0,0l0,0c0-0.1,0-0.2,0-0.3c-0.3,0-0.7-0.1-0.8-0.5
		c0-0.1-0.1-0.1-0.2-0.1c-0.2,0-0.3-0.1-0.5-0.1c-0.1,0-0.2-0.2-0.3-0.3c-0.3,0.1-0.5-0.1-0.8-0.3c-0.2-0.2-0.5-0.1-0.8-0.2
		c-0.1,0-0.2,0-0.2-0.1c-0.2-0.3-0.5-0.3-0.9-0.2l0,0c0-0.1,0-0.3,0-0.4c-0.1,0-0.2,0-0.3,0c-0.3,0-0.5,0-0.8,0
		c-0.1,0-0.3,0-0.3-0.2c0-0.2-0.2-0.2-0.4-0.2c-0.4,0-0.7,0-1.1-0.1c0,0,0,0,0,0c-0.1-0.5-0.5-0.3-0.7-0.3c-0.3,0-0.7,0-1,0l0,0
		c0-0.2-0.1-0.3-0.3-0.3c-0.4,0-0.8-0.1-1.2-0.1c-0.2,0-0.4,0-0.7,0c-0.4,0-0.8,0-1.3-0.1c-0.1,0-0.1,0-0.1,0
		c-0.1-0.3-0.4-0.2-0.6-0.2c-0.2,0-0.3,0-0.5,0c-0.5,0-0.9,0-1.4,0c-0.2,0-0.5,0-0.7-0.1c-0.2-0.1-0.3,0-0.4,0.1
		c0,0.1-0.2,0.1-0.2,0.1c-0.6,0-1.3,0-1.9,0c-0.2,0-0.5,0.1-0.7,0.1c-0.1,0-0.2,0-0.3,0c-0.3,0-0.5,0-0.5,0.4l0,0
		c-0.4,0-0.8,0-1.2,0c0,0,0,0.1,0,0.1c-0.1,0-0.1,0-0.2,0c-0.1,0-0.3-0.1-0.4-0.1c0,0,0,0.1,0,0.1c0,0.1,0.1,0.1,0.1,0.2
		c-0.5,0.2-0.9,0.2-1.4,0.1c0.1,0,0.2,0.1,0.3,0.2c-0.3,0.1-0.6,0.2-0.9,0.3c-0.1,0-0.2,0-0.3,0c-0.2,0-0.5-0.2-0.4,0.3
		c0,0.1-0.1,0.1-0.1,0.2c0,0,0,0,0,0c-0.3-0.1-0.6-0.1-0.9,0.2c-0.1,0.1-0.3,0.1-0.4,0.1c-0.1,0-0.3,0.1-0.4,0.1c0,0,0,0,0,0
		c-0.1,0-0.2,0-0.3,0c0,0.4-0.3,0.4-0.5,0.4c-0.1,0-0.3,0.1-0.3,0.2c-0.1,0.2-0.3,0.2-0.5,0.3c-0.1,0-0.2,0.1-0.3,0.1
		c-0.2,0.3-0.4,0.4-0.7,0.3c-0.1,0.2-0.1,0.6-0.5,0.4C18.1,8.9,18,9,17.6,8.9c-0.3-0.1-0.4,0.1-0.3,0.4c-0.3,0-0.4,0.1-0.4,0.4l0,0
		l0,0c-0.4-0.1-0.7,0.1-0.8,0.4c-0.1,0-0.3,0-0.4,0c0,0.3,0,0.5-0.3,0.4c0,0-0.1,0.1-0.1,0.1c-0.1,0.1-0.2,0.2-0.3,0.3
		c-0.1,0.1-0.2,0.2,0,0.3c-1.3,1.1-2.5,2.3-3.6,3.6c-1.7,2-3.1,4.3-4.2,6.7c-0.1,0.1-0.1,0.2-0.2,0.4c-0.1,0.2-0.3,0.4-0.3,0.6
		c-0.1,0.4-0.3,0.6-0.5,0.6c0,0.2,0,0.4-0.1,0.5c-0.2,0.7-0.4,1.4-0.6,2c-0.1,0.3-0.3,0.6-0.3,0.9c-0.1,0.3,0,0.7,0,1.1l0,0
		C5,27.6,5,27.9,5,28c-0.1,0.5-0.1,1-0.1,1.5c0,0.5-0.1,1-0.2,1.5c-0.1,0.5-0.1,1.1-0.2,1.6c0,0.3,0,0.5,0.1,0.8c0,0.1,0,0.2,0,0.3
		c0.1,1,0.2,1.9,0.2,2.9c0,0.2,0.1,0.6,0,0.7c-0.1,0.2-0.1,0.4,0,0.5C5,38,5,38.3,5.3,38.4l0,0c0,0.4,0,0.7,0.1,1.1l0,0
		c0.1,0.4,0.3,0.8,0.4,1.1c0,0.1,0.1,0.1,0.1,0.2c0.9,3.2,2.4,6.1,4.3,8.8c3,4.1,6.8,7.2,11.4,9.3c2.3,1.1,4.8,1.7,7.3,2.1
		c0.1,0,0.2,0,0.3,0c0.2,0,0.3,0.1,0.5,0.1c0,0,0,0,0,0c0.2,0,0.3,0,0.5,0.1c0,0,0,0,0,0c0.2,0,0.3,0.1,0.5,0.1c0.4,0,0.8,0,1.3,0
		c0.2,0,0.5,0,0.7,0c0.4,0,0.8,0,1.2,0c0.1,0,0.3,0,0.4,0c0.1,0,0.1,0,0.2,0c0.6-0.1,1.2-0.1,1.9-0.2c2.1-0.2,4.2-0.7,6.2-1.4
		c0.2-0.1,0.5-0.2,0.8-0.3c-0.5-0.4-0.9-0.7-1.3-1c-0.5-0.4-0.9-0.8-1.4-1.1c-0.2-0.1-0.2-0.2-0.1-0.4c0.2-0.5,0.3-1,0.5-1.5
		c0.1-0.2,0.1-0.3-0.1-0.4c0,0-0.1-0.1-0.1-0.1c-0.4-0.3-0.8-0.8-1.3-0.9c-0.5-0.2-1,0-1.6-0.1c-0.3,0-0.6,0-0.9,0
		c-0.1,0-0.2-0.1-0.2-0.1c-1,0-2.1,0-3.1,0c-0.1,0-0.1,0-0.2,0.1c-1.1-0.6-2.2-1.2-3.4-1.7c-3.2-1.6-6.3-3.2-9.4-4.9
		c-0.6-0.3-1.2-0.9-1.7-1.3c-1.4-1.2-2.7-2.5-3.9-3.9c-0.9-1.1-1-2.3-0.4-3.6c0.2-0.5,0.6-0.9,0.9-1.4c0.1-0.1,0.1-0.2,0.1-0.3
		c-0.1-0.7-0.3-1.4-0.4-2c-0.1-1.4,0.5-2.4,1.6-3.2c0.3-0.2,0.7-0.4,0.9-0.6c-0.2-0.7-0.5-1.3-0.6-2c-0.2-0.9,0-1.8,0.7-2.4
		c0.6-0.5,1.2-0.8,1.8-1.2c0.2-0.1,0.3-0.2,0.2-0.4c-0.3-1.4-0.4-2.8,0.3-4.2c0.5-1,1.4-1.6,2.6-1.9c1.3-0.3,2.6-0.2,3.8,0.4
		c2,0.9,4.1,1.9,6.1,2.8c0,0,0.1,0,0.2,0c0.4-0.7,0.8-1.4,1.2-2.1c0.3-0.5,0.4-1.1,0.6-1.7c0.1-0.3,0-0.5-0.2-0.8
		c-1.1-1.7-1.6-3.6-1.5-5.7c0.1-1.2,0.6-2.3,1.7-3c0.1,0,0.2,0,0.3,0C34.8,8.9,34.8,9,34.8,9z M32.9,40.8c-0.2-0.2-0.3-0.5-0.4-0.7
		c-0.2,0.1-0.4,0.2-0.6,0.3c-0.6,0.4-1.3,0.8-1.9,1.2c-0.2,0.1-0.2,0.2-0.2,0.4c0,1,0,1.9-0.1,2.9c0-0.1-0.1-0.1-0.1-0.2
		c-0.2-0.7-0.5-1.5-0.7-2.2c-0.1-0.2-0.1-0.2-0.3-0.2c-0.3,0.1-0.8,0-1,0.2c-0.2,0.2-0.3,0.6-0.5,0.9c-0.6,1.2-1.4,2.3-2.7,2.8
		c-0.5,0.2-1.1,0.3-1.7,0.5c0.3,0.1,0.6,0.3,0.9,0.5c3.1,1.6,6.2,3.3,9.3,4.9c0.3,0.1,0.5,0.3,0.8,0.4c0.1,0.1,0.3,0.1,0.5,0
		c0.7-0.1,1.5-0.2,2.2-0.3c0.9-0.2,1.8-0.3,2.7-0.6c1-0.4,1.6-1.2,2.3-2.1c0.5-0.7,1-1.5,1.5-2.2c0-0.1,0.1-0.1,0.2-0.2
		c-0.2,1.1-0.4,2.1-0.9,2.9c-0.5,0.9-1.1,1.7-1.7,2.5c0.4,0.3,0.8,0.6,1.3,0.9c2.3-5.7,5.5-10.8,9.2-15.6c-1.2-0.7-2.3-1.5-3.6-2.3
		c-0.3,0.4-0.6,0.8-0.9,1.2c-0.1-0.7-0.2-1.3-0.3-1.9c-0.5-3.4-1.2-6.8-2-10.1c-0.4-1.6-1-3.2-1.6-4.7c-0.4-1-0.8-2-1-3.1
		c0-0.1,0-0.2,0-0.2c0-0.6-0.2-1.2-0.6-1.7c-0.6-0.7-1.1-1.5-1.6-2.2c-0.4-0.4-0.4-0.9-0.5-1.4c0-0.6-0.1-1.3-0.2-1.9
		c-0.1-0.5-0.2-0.6-0.7-0.6c-1.2,0-2.2,0.3-3.1,1.1c-0.4,0.4-0.6,0.8-0.7,1.4c-0.4,2.3,0.2,4.4,1.4,6.4c0.1,0.2,0.2,0.4,0.1,0.7
		c-0.1,0.6-0.1,1.2-0.3,1.8c-0.2,0.7-0.5,1.4-0.7,2.1c-0.5,1.5-0.8,3-1,4.6c-0.1,1.2-0.3,2.3-0.5,3.5c-0.1,0.5-0.1,1-0.1,1.5
		c-0.2,0.3-0.1,0.6,0,0.9c0,0.1,0,0.3,0,0.4c-0.2,0.2-0.2,1.5,0,1.7c0.1,1.3,0.2,2.5,0.5,3.7c0.4,1.7,1.1,3.2,2.4,4.5
		c0.4,0.4,0.8,0.7,1.2,1c0,0,0,0,0,0.1C35.4,43.7,34,42.4,32.9,40.8z M47.5,46c2.6,1.6,5.1,3.2,7.7,4.8c0.7-1,1.3-1.9,1.9-2.8
		c1.3-2.1,2.3-4.3,3-6.6c0.1-0.3,0-0.4-0.2-0.5c-2.2-1.2-4.3-2.4-6.5-3.6C51.1,39.9,48.9,42.6,47.5,46z M31.7,31.6
		c-0.1-0.6-0.4-1.1-0.9-1.3c-1.4-0.7-2.8-1.5-4.3-2.2c-1.6-0.7-3.2-1.3-4.8-2c-0.3-0.1-0.6-0.1-0.9,0c-0.8,0.4-1.4,0.9-1.9,1.6
		c-0.2,0.3-0.2,0.6-0.2,1c0,0.8,0.2,1.6,0.8,2.2c0.2,0.2,0.4,0.3,0.6,0.5c2.9,1.4,5.8,2.7,8.9,3.8c0.7,0.3,1.3,0.2,1.8-0.4
		c0.2-0.2,0.3-0.3,0.5-0.5c0.5-0.5,0.8-1,0.7-1.7C31.8,32.3,31.8,32,31.7,31.6z M32.6,24.3c-1-0.6-1.9-1.2-2.9-1.7
		c-1.7-0.8-3.4-1.5-5.1-2.2c-1-0.4-1.7-0.2-2.3,0.6c-0.8,0.9-1.1,2-0.9,3.3c0.1,0.4,0.2,0.6,0.6,0.8c2.9,1.4,5.8,2.9,8.8,4
		c0.2,0.1,0.4,0.1,0.6,0.2c0.5,0.2,0.8,0,1.1-0.3c0.6-0.7,1-1.9,1-3.1C33.4,25.2,33.1,24.7,32.6,24.3z M16.8,35.7
		c0.1,0.5,0.3,0.9,0.9,1.1c1.6,0.7,3.2,1.4,4.9,2c1.2,0.5,2.5,0.9,3.7,1.4c0.2,0.1,0.4,0.1,0.7,0.2c1,0.3,1.8-0.1,2.5-0.9
		c0.3-0.3,0.4-0.8,0.3-1.2c0-0.4-0.1-0.8-0.3-1.2c-0.1-0.4-0.4-0.7-0.9-0.9c-2.8-1.2-5.5-2.5-8.2-3.8c-0.5-0.2-1-0.5-1.6-0.4
		c-1,0-1.9,0.8-2,1.8c0,0.3,0,0.5-0.1,0.8C16.7,34.9,16.7,35.3,16.8,35.7z M20.1,43.3c0.8,0.4,1.7,0.9,2.6,1.2
		c1.2,0.4,1.9,0.3,2.8-1.1c0.2-0.4,0.3-0.8,0.4-1.3c0.1-0.4-0.1-0.7-0.5-0.9c-0.9-0.5-1.8-1-2.7-1.5c-1.5-0.7-3.1-1.4-4.7-2.1
		c-0.5-0.2-1-0.1-1.4,0.3c-1.2,1.2-1.4,2.8-0.3,4.1c0.7,0.8,1.4,1.5,2.2,2.2c0.2,0.2,0.4,0.3,0.6,0.3c0.1,0,0.3,0,0.3,0
		c0.1,0,0.1-0.2,0-0.3c-0.1-0.3-0.3-0.6-0.4-0.9c-0.1-0.2-0.3-0.4-0.4-0.7c0,0,0,0,0.1-0.1C19.2,42.8,19.7,43.1,20.1,43.3z"/>
	<path class="st0" d="M28.2,4.8c0.1,0,0.2,0,0.3,0c0.2,0,0.5-0.1,0.7-0.1c0.6,0,1.3,0,1.9,0c0.1,0,0.2-0.1,0.2-0.1
		c0.1-0.2,0.1-0.2,0.4-0.1c0.2,0.1,0.5,0.1,0.7,0.1c0.5,0,0.9,0,1.4,0c0.2,0,0.3,0,0.5,0c0.2,0,0.5-0.1,0.6,0.2c0,0,0.1,0,0.1,0
		c0.4,0,0.8,0.1,1.3,0.1c0.2,0,0.4-0.1,0.7,0c0.4,0,0.8,0.1,1.2,0.1c0.2,0,0.3,0.1,0.3,0.3c-1.1-0.1-2.1-0.3-3.2-0.4
		c-1.7-0.2-3.4-0.1-5.2,0.1c-0.8,0.1-1.6,0.2-2.5,0.3C27.7,4.8,27.9,4.8,28.2,4.8z M28.7,4.8C28.7,4.8,28.7,4.8,28.7,4.8
		c0,0,0.1,0,0.1,0c0,0,0,0,0,0C28.8,4.8,28.7,4.8,28.7,4.8z M37.5,4.9C37.5,4.8,37.5,4.8,37.5,4.9c0,0-0.1,0-0.1,0c0,0,0,0,0,0
		C37.4,4.9,37.5,4.9,37.5,4.9z M34.4,4.5C34.4,4.5,34.5,4.6,34.4,4.5C34.5,4.5,34.5,4.5,34.4,4.5C34.5,4.5,34.5,4.5,34.4,4.5
		C34.4,4.5,34.4,4.5,34.4,4.5z M29.2,4.8C29.2,4.8,29.2,4.8,29.2,4.8C29.2,4.8,29.2,4.8,29.2,4.8C29.1,4.8,29.1,4.8,29.2,4.8
		C29.2,4.8,29.2,4.8,29.2,4.8z M31.7,4.5C31.8,4.5,31.8,4.5,31.7,4.5C31.8,4.5,31.8,4.5,31.7,4.5C31.8,4.5,31.8,4.5,31.7,4.5
		C31.8,4.5,31.8,4.5,31.7,4.5z"/>
	<path class="st0" d="M16.9,9.7c1.3-0.7,2.5-1.5,3.8-2.2c0.8-0.4,1.6-0.7,2.4-1.1c-0.3-0.1-0.6-0.1-0.9,0.2
		c-0.1,0.1-0.3,0.1-0.4,0.1c-0.1,0-0.3,0.1-0.4,0.1c-0.1,0-0.2,0-0.3,0c0,0.4-0.3,0.4-0.5,0.4c-0.1,0-0.3,0.1-0.3,0.2
		c-0.1,0.2-0.3,0.2-0.5,0.3c-0.1,0-0.2,0.1-0.3,0.1c-0.2,0.3-0.4,0.4-0.7,0.3c-0.1,0.2-0.1,0.6-0.5,0.4C18.1,8.9,18,9,17.6,8.9
		c-0.3-0.1-0.4,0.1-0.3,0.4C17,9.2,16.9,9.4,16.9,9.7z"/>
	<path class="st0" d="M4.9,37.8c-0.1-0.1-0.1-0.3,0-0.5c0.1-0.2,0-0.5,0-0.7c-0.1-1-0.2-1.9-0.2-2.9c0-0.1,0-0.2,0-0.3
		c0-0.3-0.1-0.5-0.1-0.8c0-0.5,0.1-1.1,0.2-1.6c0.1-0.5,0.1-1,0.2-1.5c0-0.5,0-1,0.1-1.5c0-0.2,0-0.4,0.3-0.5
		c-0.1,1.1-0.3,2.2-0.4,3.3c-0.2,1.7-0.1,3.4,0.1,5.1c0.1,0.8,0.2,1.7,0.3,2.5C5,38.3,5,38,4.9,37.8z M4.6,33.1
		C4.7,33.1,4.7,33.1,4.6,33.1c0-0.1,0-0.1,0-0.2c0,0,0,0,0,0C4.6,32.9,4.6,33,4.6,33.1z"/>
	<path class="st0" d="M51.4,11.4c0.7,0.6,1.4,1.3,2.1,1.9c0,0,0.1,0,0.1,0c0,0,0,0,0,0c0,0-0.1,0-0.1,0c0.4,0.4,0.8,0.9,1.2,1.3
		c0-0.3,0-0.6-0.4-0.8c-0.1,0-0.2-0.1-0.3-0.2c0,0,0,0,0.1-0.1c0.1,0,0.1,0,0.2,0c0,0,0-0.1,0-0.1c-0.1,0-0.2,0-0.4,0c0,0,0,0,0.1,0
		c-0.1-0.1-0.3-0.2-0.4-0.4c0-0.1-0.1-0.1-0.1-0.2c-0.1-0.1-0.1-0.3-0.3-0.2c0,0-0.1,0-0.1,0c0-0.2-0.4-0.4-0.4-0.5
		c0-0.3-0.3-0.2-0.4-0.3C52.1,11.4,52,11.4,51.4,11.4z"/>
	<path class="st0" d="M43.1,6.4c1.1,0.5,2.2,1,3.3,1.5c0.4,0.2,0.8,0.4,1.1,0.6c0-0.1,0-0.2,0-0.3c-0.3,0-0.7-0.1-0.8-0.5
		c0-0.1-0.1-0.1-0.2-0.1c-0.2,0-0.3-0.1-0.5-0.1c-0.1,0-0.2-0.2-0.3-0.3c-0.3,0.1-0.5-0.1-0.8-0.3c-0.2-0.2-0.5-0.1-0.8-0.2
		c-0.1,0-0.2,0-0.2-0.1C43.7,6.3,43.4,6.3,43.1,6.4z"/>
	<path class="st0" d="M39.5,5.1c0.3,0,0.6-0.2,0.7,0.3c0,0,0,0,0,0c0.4,0,0.7,0.1,1.1,0.1c0.2,0,0.4,0,0.4,0.2C41.8,6,41.9,6,42,6
		c0.3,0,0.5,0,0.8,0c0.1,0,0.2,0,0.3,0c0,0.2,0,0.3,0,0.4c-0.6-0.2-1.3-0.4-1.9-0.6c-0.9-0.2-1.8-0.5-2.7-0.7
		C38.8,5.1,39.2,5.1,39.5,5.1z M42.7,6.1C42.7,6.1,42.7,6.1,42.7,6.1C42.7,6.1,42.7,6.1,42.7,6.1C42.7,6.1,42.7,6.1,42.7,6.1
		C42.7,6.1,42.7,6.1,42.7,6.1z"/>
	<path class="st0" d="M23.1,6.4c1.3-0.4,2.5-0.7,3.8-1.1c0.3-0.1,0.6-0.1,0.8-0.2c-0.4,0-0.8,0-1.2,0c0,0,0,0.1,0,0.1
		c-0.1,0-0.1,0-0.2,0c-0.1,0-0.3-0.1-0.4-0.1c0,0,0,0.1,0,0.1c0,0.1,0.1,0.1,0.1,0.2c-0.5,0.2-0.9,0.2-1.4,0.1
		c0.1,0,0.2,0.1,0.3,0.2c-0.3,0.1-0.6,0.2-0.9,0.3c-0.1,0-0.2,0-0.3,0c-0.2,0-0.5-0.2-0.4,0.3C23.2,6.3,23.1,6.4,23.1,6.4z"/>
	<path class="st0" d="M5.3,27.6c0.2-0.9,0.4-1.7,0.7-2.6c0.3-1.1,0.7-2.1,1.1-3.2c-0.1,0.2-0.3,0.4-0.3,0.6
		c-0.1,0.4-0.3,0.6-0.5,0.6c0,0.2,0,0.4-0.1,0.5c-0.2,0.7-0.4,1.4-0.6,2c-0.1,0.3-0.3,0.6-0.3,0.9C5.2,26.9,5.3,27.2,5.3,27.6z"/>
	<path class="st0" d="M40.6,12.8c0,0,0-0.1-0.1-0.1c-0.6-0.5-0.7-1.1-0.7-1.8c0-0.6-0.1-1.2-0.2-1.8c0,0.1-0.1,0.2-0.1,0.3
		c0,0.5,0.1,1.1,0.1,1.6c0,0.4,0.1,0.7,0.1,1.1c0.2,0,0.5,0.4,0.4,0.7C40.3,12.8,40.5,12.8,40.6,12.8z"/>
	<path class="st0" d="M15,11.2c0.7-0.5,1.3-1,2-1.5c-0.4-0.1-0.7,0.1-0.8,0.4c-0.1,0-0.3,0-0.4,0c0,0.3,0,0.5-0.3,0.4
		c0,0-0.1,0.1-0.1,0.1c-0.1,0.1-0.2,0.2-0.3,0.3C14.9,11,14.7,11.1,15,11.2z"/>
	<path class="st0" d="M49.3,9.7c0.7,0.5,1.4,1.1,2.1,1.6c0-0.1,0-0.2-0.1-0.3c-0.2-0.2-0.4-0.3-0.6-0.5c-0.1-0.1-0.2-0.1-0.2-0.2
		c0-0.2-0.1-0.2-0.3-0.2c-0.1,0-0.1,0-0.2-0.1C49.9,9.7,49.6,9.7,49.3,9.7z"/>
	<path class="st0" d="M47.5,8.6c0.6,0.4,1.2,0.8,1.7,1.1c0.1-0.3-0.1-0.4-0.4-0.4c0-0.3-0.1-0.4-0.4-0.4c-0.2,0-0.3,0-0.4-0.2
		C48,8.6,47.7,8.6,47.5,8.6z"/>
	<path class="st0" d="M39.1,8.3c-1-0.3-2-0.4-3.1-0.1c0.2,0,0.3,0.1,0.5,0c0.8-0.2,1.6-0.1,2.3,0.1C39,8.3,39,8.3,39.1,8.3z"/>
	<path class="st0" d="M5.8,40.8c-0.2-0.8-0.4-1.6-0.6-2.4c0,0.4,0,0.7,0.1,1.1c0,0,0,0,0,0c0,0,0,0,0,0c0.1,0.4,0.3,0.8,0.4,1.1
		C5.7,40.6,5.8,40.7,5.8,40.8z"/>
	<path class="st0" d="M33.4,53.9c1.2,0,2.4,0,3.5,0c-0.1,0-0.2-0.1-0.2-0.1c-1,0-2.1,0-3.1,0C33.5,53.8,33.4,53.9,33.4,53.9z"/>
	<path class="st0" d="M33.1,35c0-0.6,0-1.1,0-1.7C33,33.6,33,34.8,33.1,35z"/>
	<path class="st0" d="M36,8.2c-0.4,0.2-0.8,0.4-1.2,0.5c0.2,0,0.3,0,0.4-0.1c0.1-0.1,0.3-0.2,0.4-0.1C35.9,8.5,35.9,8.4,36,8.2z"/>
	<path class="st0" d="M39.6,9.1c0-0.1,0-0.2,0-0.3c0-0.3-0.2-0.5-0.5-0.5c0,0.1,0,0.1-0.1,0.2c0,0,0.1,0,0.1,0
		c0.1,0.2,0.2,0.3,0.3,0.5C39.5,9,39.6,9,39.6,9.1z"/>
	<path class="st0" d="M61.4,34.8c0,0.5-0.1,1.1-0.1,1.6c0-0.2,0.1-0.3,0.1-0.5C61.4,35.5,61.4,35.1,61.4,34.8z"/>
	<path class="st0" d="M31.9,61.3c-0.6,0-1.2-0.1-1.8-0.1c0.2,0,0.3,0.1,0.5,0.1C31.1,61.3,31.5,61.3,31.9,61.3z"/>
	<path class="st0" d="M54.7,14.7c0.1,0.1,0.2,0.2,0.3,0.4C55.2,14.8,55.1,14.7,54.7,14.7z"/>
	<path class="st0" d="M33.9,61.3c-0.4,0-0.8,0-1.2,0C33.1,61.3,33.5,61.3,33.9,61.3z"/>
	<path class="st0" d="M33.2,33c0-0.3,0-0.6,0-0.9C33,32.4,33.1,32.7,33.2,33z"/>
	<path class="st0" d="M34.8,8.7c-0.1,0.1-0.2,0.1-0.3,0.2c0.1,0,0.2,0,0.3,0l0,0C34.8,8.8,34.8,8.8,34.8,8.7z"/>
	<path class="st0" d="M29.7,61.1c-0.2,0-0.3-0.1-0.5-0.1C29.3,61.1,29.5,61.1,29.7,61.1z"/>
	<path class="st0" d="M30.1,61.2c-0.2,0-0.3,0-0.5-0.1C29.8,61.1,30,61.2,30.1,61.2z"/>
	<path class="st0" d="M34.8,8.9c0,0.1,0,0.1,0,0.2c0,0,0.1-0.1,0.1-0.1C34.9,8.9,34.8,8.9,34.8,8.9C34.8,8.9,34.8,8.9,34.8,8.9z"/>
	<path class="st0" d="M34.5,61.3c-0.1,0-0.1,0-0.2,0C34.4,61.3,34.5,61.3,34.5,61.3z"/>
	<path class="st0" d="M61.4,34.5C61.4,34.5,61.4,34.5,61.4,34.5C61.4,34.5,61.4,34.5,61.4,34.5C61.4,34.5,61.4,34.5,61.4,34.5z"/>
	<path class="st0" d="M39.8,47c0.2-0.1,0.5-0.1,0.7-0.2c1.6-0.7,2.9-1.7,4-3c0.7-0.9,1-2,1.1-3.1c0.1-0.5,0.1-1.1,0.1-1.7
		c-0.2,0.4-0.3,0.8-0.5,1.3c-0.5,1.6-1.4,2.9-2.6,4.1C41.7,45.2,40.8,46.1,39.8,47L39.8,47z"/>
	<path class="st0" d="M37.2,44.4c0.1,0,0.1,0,0.2,0c0,0,0,0,0,0C37.4,44.3,37.3,44.3,37.2,44.4C37.3,44.3,37.3,44.3,37.2,44.4z"/>
	<polygon class="st0" points="39.8,47.1 39.8,47.1 39.8,47 	"/>
	<path class="st0" d="M28.8,4.8c0,0-0.1,0-0.1,0c0,0,0,0,0,0C28.7,4.9,28.8,4.9,28.8,4.8C28.8,4.9,28.8,4.8,28.8,4.8z"/>
	<path class="st0" d="M37.4,4.9c0,0,0.1,0,0.1,0c0,0,0,0,0,0C37.5,4.8,37.4,4.8,37.4,4.9C37.4,4.8,37.4,4.8,37.4,4.9z"/>
	<path class="st0" d="M34.5,4.5C34.4,4.5,34.4,4.5,34.5,4.5C34.4,4.5,34.5,4.6,34.5,4.5C34.5,4.5,34.5,4.5,34.5,4.5
		C34.5,4.5,34.5,4.5,34.5,4.5z"/>
	<path class="st0" d="M29.1,4.8C29.2,4.8,29.2,4.8,29.1,4.8C29.2,4.8,29.2,4.8,29.1,4.8C29.2,4.8,29.2,4.8,29.1,4.8
		C29.1,4.8,29.1,4.8,29.1,4.8z"/>
	<path class="st0" d="M31.8,4.5C31.8,4.5,31.8,4.5,31.8,4.5C31.8,4.5,31.8,4.5,31.8,4.5C31.8,4.5,31.8,4.5,31.8,4.5
		C31.8,4.5,31.8,4.5,31.8,4.5z"/>
	<path class="st0" d="M4.6,32.9c0,0.1,0,0.1,0,0.2c0,0,0,0,0,0C4.7,33,4.7,32.9,4.6,32.9C4.7,32.9,4.7,32.9,4.6,32.9z"/>
	<path class="st0" d="M53.5,13.3c0,0,0.1,0,0.1,0c0,0,0,0,0,0C53.6,13.3,53.5,13.3,53.5,13.3C53.5,13.3,53.5,13.3,53.5,13.3z"/>
	<path class="st0" d="M42.7,6.1C42.7,6.1,42.7,6.1,42.7,6.1C42.7,6.1,42.7,6.1,42.7,6.1C42.7,6.1,42.7,6.1,42.7,6.1
		C42.7,6.1,42.7,6.1,42.7,6.1z"/>
	<path class="st0" d="M5.3,39.5C5.3,39.4,5.3,39.4,5.3,39.5C5.3,39.4,5.3,39.4,5.3,39.5L5.3,39.5z"/>
</g>
<g>
	<path class="st0" d="M95.8,19.5c2,1.4,3.4,3.4,4.2,5.8v-7.6h4.9v29.6H100v-7.6c-0.8,2.4-2.2,4.3-4.2,5.8c-2,1.4-4.4,2.2-7.3,2.2
		c-2.6,0-5-0.6-7-1.8c-2.1-1.2-3.7-3-4.8-5.3c-1.2-2.3-1.8-5-1.8-8.1c0-3.1,0.6-5.8,1.8-8.1c1.2-2.3,2.8-4.1,4.8-5.3
		c2.1-1.2,4.4-1.8,7-1.8C91.4,17.3,93.9,18.1,95.8,19.5z M82.7,24.6c-1.8,1.9-2.7,4.6-2.7,8c0,3.4,0.9,6,2.7,8
		c1.8,1.9,4.2,2.9,7.3,2.9c1.9,0,3.7-0.4,5.2-1.4c1.5-0.9,2.7-2.2,3.6-3.8c0.9-1.6,1.3-3.5,1.3-5.7c0-2.2-0.4-4.1-1.3-5.7
		c-0.9-1.7-2.1-2.9-3.6-3.8c-1.5-0.9-3.3-1.3-5.2-1.3C86.9,21.7,84.5,22.7,82.7,24.6z"/>
	<path class="st0" d="M135.3,20.4c2.5,2,4,4.7,4.6,8.1h-5.2c-0.4-2.1-1.3-3.8-2.9-5c-1.6-1.2-3.6-1.8-6-1.8c-1.7,0-3.3,0.4-4.7,1.2
		c-1.4,0.8-2.6,2-3.4,3.6c-0.9,1.6-1.3,3.7-1.3,6.1c0,2.4,0.4,4.4,1.3,6.1c0.9,1.6,2,2.9,3.4,3.6c1.4,0.8,3,1.2,4.7,1.2
		c2.4,0,4.4-0.6,6-1.8c1.6-1.2,2.6-2.9,2.9-5h5.2c-0.6,3.4-2.1,6.1-4.6,8.1s-5.6,3-9.4,3c-2.8,0-5.4-0.6-7.6-1.8
		c-2.2-1.2-3.9-3-5.2-5.3c-1.2-2.3-1.9-5-1.9-8.1c0-3.1,0.6-5.8,1.9-8.1c1.2-2.3,3-4.1,5.2-5.3c2.2-1.2,4.7-1.8,7.6-1.8
		C129.7,17.3,132.8,18.3,135.3,20.4z"/>
	<path class="st0" d="M167.4,19.2c2.2,1.2,4,3,5.3,5.3c1.3,2.3,1.9,5,1.9,8.1c0,3.1-0.6,5.8-1.9,8.1c-1.3,2.3-3,4-5.3,5.3
		c-2.3,1.2-4.8,1.8-7.6,1.8c-2.8,0-5.4-0.6-7.6-1.8c-2.3-1.2-4-3-5.3-5.3c-1.3-2.3-1.9-5-1.9-8.1c0-3.1,0.6-5.8,1.9-8.1
		c1.3-2.3,3.1-4.1,5.3-5.3c2.2-1.2,4.8-1.8,7.6-1.8C162.6,17.3,165.1,17.9,167.4,19.2z M154.9,22.8c-1.5,0.8-2.7,2-3.6,3.6
		c-0.9,1.6-1.4,3.7-1.4,6.1c0,2.4,0.5,4.4,1.4,6c0.9,1.6,2.1,2.9,3.6,3.6c1.5,0.8,3.1,1.2,4.9,1.2c1.8,0,3.4-0.4,4.9-1.2
		c1.5-0.8,2.7-2,3.6-3.6c0.9-1.6,1.4-3.6,1.4-6c0-2.4-0.5-4.4-1.4-6.1c-0.9-1.6-2.1-2.9-3.6-3.6c-1.5-0.8-3.1-1.2-4.9-1.2
		C158,21.7,156.4,22,154.9,22.8z"/>
	<path class="st0" d="M185.9,7.4v40H181v-40H185.9z"/>
	<path class="st0" d="M213.3,19.5c2,1.4,3.4,3.4,4.2,5.8v-7.6h4.9v29.6h-4.9v-7.6c-0.8,2.4-2.2,4.3-4.2,5.8c-2,1.4-4.4,2.2-7.3,2.2
		c-2.6,0-5-0.6-7-1.8c-2.1-1.2-3.7-3-4.8-5.3c-1.2-2.3-1.8-5-1.8-8.1c0-3.1,0.6-5.8,1.8-8.1c1.2-2.3,2.8-4.1,4.8-5.3
		c2.1-1.2,4.4-1.8,7-1.8C208.9,17.3,211.3,18.1,213.3,19.5z M200.1,24.6c-1.8,1.9-2.7,4.6-2.7,8c0,3.4,0.9,6,2.7,8
		c1.8,1.9,4.2,2.9,7.3,2.9c1.9,0,3.7-0.4,5.2-1.4c1.5-0.9,2.7-2.2,3.6-3.8c0.9-1.6,1.3-3.5,1.3-5.7c0-2.2-0.4-4.1-1.3-5.7
		c-0.9-1.7-2.1-2.9-3.6-3.8c-1.5-0.9-3.3-1.3-5.2-1.3C204.4,21.7,201.9,22.7,200.1,24.6z"/>
	<path class="st0" d="M233.8,41.6v5.8h-5.9v-5.8H233.8z"/>
	<path class="st0" d="M284.3,20.5c2.1,2.2,3.2,5.4,3.2,9.6v17.2h-4.9V30.6c0-2.9-0.7-5.1-2.1-6.7c-1.4-1.5-3.4-2.3-5.9-2.3
		c-2.6,0-4.7,0.9-6.2,2.6c-1.6,1.7-2.3,4.2-2.3,7.5v15.7H261V30.6c0-2.9-0.7-5.1-2.2-6.7c-1.4-1.5-3.4-2.3-5.8-2.3
		c-2.6,0-4.7,0.9-6.3,2.6c-1.6,1.7-2.3,4.2-2.3,7.5v15.7h-4.9V17.7h4.9v6.8c0.7-2.3,2-4.1,3.9-5.4c1.9-1.2,4-1.9,6.4-1.9
		c2.5,0,4.7,0.6,6.6,1.9c1.9,1.3,3.2,3.2,4,5.6c0.8-2.4,2.2-4.3,4.2-5.6c1.9-1.3,4.1-2,6.6-2C279.4,17.2,282.1,18.3,284.3,20.5z"/>
	<path class="st0" d="M322.1,33.6h-23.7c0.1,3.4,1.1,5.9,2.9,7.6c1.8,1.7,4,2.5,6.7,2.5c2.4,0,4.4-0.6,6-1.8
		c1.6-1.2,2.6-2.8,2.9-4.8h5.2c-0.4,2.1-1.2,3.9-2.4,5.5c-1.2,1.6-2.9,2.9-4.8,3.8c-2,0.9-4.2,1.4-6.7,1.4c-2.8,0-5.4-0.6-7.6-1.8
		c-2.2-1.2-3.9-3-5.2-5.3c-1.2-2.3-1.9-5-1.9-8.1c0-3.1,0.6-5.8,1.9-8.1c1.2-2.3,3-4.1,5.2-5.3c2.2-1.2,4.7-1.8,7.6-1.8
		c2.9,0,5.4,0.6,7.5,1.8c2.1,1.2,3.8,2.9,4.9,4.9c1.1,2.1,1.7,4.3,1.7,6.8C322.3,31.9,322.2,32.8,322.1,33.6z M316.2,25.7
		c-0.8-1.5-2-2.6-3.4-3.3c-1.4-0.7-3-1.1-4.7-1.1c-2.7,0-5,0.8-6.8,2.5c-1.8,1.7-2.8,4.1-3,7.4h19C317.4,29,317.1,27.2,316.2,25.7z"
		/>
</g>
</svg>
