<?xml version="1.0" encoding="utf-8"?>
<!-- Generator: Adobe Illustrator 23.0.1, SVG Export Plug-In . SVG Version: 6.00 Build 0)  -->
<svg version="1.1" id="Layer_1" xmlns="http://www.w3.org/2000/svg" xmlns:xlink="http://www.w3.org/1999/xlink" x="0px" y="0px"
	 viewBox="0 0 990.3 727" style="enable-background:new 0 0 990.3 727;" xml:space="preserve">
<style type="text/css">
	.st0{fill:#D0CDE1;}
	.st1{fill:#3F3D56;}
	.st2{fill:#FFFFFF;}
	.st3{fill:#6C63FF;}
</style>
<title>by_my_car</title>
<path class="st0" d="M135.4,581.5l36.5-57.9l-36.5,64.2l0,6.6c-2.6,0-5.2-0.1-7.7-0.3l3-84.7l0-0.7l0.1-0.1l0.3-8l-38.1-63.5
	l38.2,57.5l0.1,1.7l2.2-64l-32.8-65.7l33.1,54.4l1.5-132.7l0-0.4l0,0.4l0.7,104.6l31.3-41.9l-31.4,50.9l-0.1,57.3l29.1-55.4
	l-29.1,63.8l-0.1,31.9l42.2-77.1l-42.3,88.2L135.4,581.5z"/>
<rect x="637.3" y="337.1" class="st1" width="10.3" height="72.8"/>
<rect x="450.7" y="59.1" transform="matrix(0.3761 -0.9266 0.9266 0.3761 39.8701 587.0364)" class="st1" width="10.3" height="409.6"/>
<path class="st0" d="M941.9,591.1c-15.9,26.5-849.9,24.3-848.7,0C109.1,564.6,943.2,566.8,941.9,591.1z"/>
<rect x="748.1" y="483.8" class="st1" width="89.2" height="34.9"/>
<rect x="389.1" y="514.6" class="st1" width="440" height="39"/>
<polygon class="st0" points="756.8,534.1 651.1,534.1 651.1,401.2 730.1,401.2 756.8,468.2 "/>
<rect x="667.5" y="409.4" class="st2" width="45.1" height="45.1"/>
<polygon class="st2" points="746.5,455.1 717.8,455.1 717.8,409.9 730.1,409.9 "/>
<rect x="669.6" y="480.2" class="st1" width="10.3" height="19.5"/>
<path class="st1" d="M726.5,438.7h0.5c5.4,0,9.7,4.4,9.7,9.7l0,0l0,0c0,5.4-4.4,9.7-9.7,9.7l0,0h-0.5l0,0V438.7L726.5,438.7z"/>
<path class="st1" d="M344.9,514.6h0.5c5.4,0,9.7,4.4,9.7,9.7v0l0,0c0,5.4-4.4,9.7-9.7,9.7h0h-0.5l0,0V514.6L344.9,514.6z"/>
<path class="st0" d="M797.8,514.4c15.6,0,29.7,7.6,39.4,19.6h20l-19.5-54.3L747,461.9l2.6,72.2h8.8
	C768.1,522,782.2,514.4,797.8,514.4z"/>
<circle class="st1" cx="798.8" cy="546.9" r="44.6"/>
<circle class="st0" cx="798.8" cy="546.9" r="23.5"/>
<circle class="st1" cx="395.7" cy="552" r="39"/>
<circle class="st0" cx="395.7" cy="552" r="20.5"/>
<rect x="632.7" y="382.8" class="st1" width="21.5" height="155.4"/>
<rect x="344.4" y="509.9" class="st1" width="309.8" height="9.2"/>
<rect x="173.7" y="497.7" transform="matrix(0.9649 -0.2625 0.2625 0.9649 -119.6366 109.1804)" class="st1" width="350.1" height="9.2"/>
<rect x="504.7" y="459.4" transform="matrix(0.8058 -0.5922 0.5922 0.8058 -191.1156 396.0428)" class="st1" width="7.2" height="60"/>
<rect x="722.4" y="457.1" class="st1" width="10.3" height="4.1"/>
<path class="st1" d="M642.4,487.9H508c-0.6,0-1-0.5-1-1c0-0.5,0.3-0.9,0.7-1l131.3-39c0.5-0.2,1.1,0.1,1.3,0.7c0,0.1,0,0.1,0,0.2
	l3.1,39C643.5,487.4,643.1,487.8,642.4,487.9C642.5,487.9,642.4,487.9,642.4,487.9L642.4,487.9z M515.1,485.8h126.2l-2.9-36.6
	L515.1,485.8z"/>
<path class="st1" d="M278.5,442.8L278.5,442.8l-29.5-0.3c-0.6,0-1-0.5-1-1c0,0,0-0.1,0-0.1l15.3-133.5c0.1-0.5,0.5-0.9,1-0.9h0
	c0.5,0,1,0.4,1,0.9l14.1,133.8c0.1,0.6-0.3,1.1-0.9,1.1C278.6,442.8,278.6,442.8,278.5,442.8z M250.2,440.4l27.2,0.3l-13-123.4
	L250.2,440.4z"/>
<path class="st1" d="M844.5,498.8L844,499c-5,1.9-10.7-0.6-12.6-5.7l0,0l0,0c-1.9-5,0.6-10.7,5.7-12.6l0,0l0.5-0.2l0,0L844.5,498.8
	L844.5,498.8z"/>
<rect x="192.1" y="508.7" transform="matrix(0.963 -0.2695 0.2695 0.963 -130.0889 74.6897)" class="st1" width="29.7" height="4.7"/>
<path class="st3" d="M427.8,448l-5.5,3l-224.4,62.8l-3.3-4.1c-5.8-7.1-9.5-15.6-10.7-24.7c-0.8-6.8-0.2-13.9,4.5-18.2l-8.6-69.1
	l124.1-34.9l58.9,25.3c0,0,22.5-6.7,39.1,5.1c5.3,3.8,9.9,9.4,13.1,17.7l2.7,7.8L427.8,448z"/>
<circle class="st1" cx="378.2" cy="460.7" r="28.8"/>
<circle class="st0" cx="378.2" cy="460.7" r="15.1"/>
<circle class="st1" cx="241.5" cy="498.9" r="28.8"/>
<circle class="st0" cx="241.5" cy="498.9" r="15.1"/>
<polygon class="st2" points="342.4,388.9 253.4,413.8 245.9,387 302.7,371.1 "/>
<rect x="202.7" y="394.5" transform="matrix(0.963 -0.2695 0.2695 0.963 -101.9012 74.698)" class="st2" width="36.8" height="27.8"/>
<rect x="260.1" y="433" transform="matrix(0.963 -0.2695 0.2695 0.963 -108.1982 86.9414)" class="st1" width="4.7" height="9"/>
<rect x="326.9" y="400.4" transform="matrix(0.963 -0.2695 0.2695 0.963 -96.293 104.2252)" class="st1" width="9" height="4.7"/>
<path class="st1" d="M324.8,383.8l0.5-0.1c5.2-1.5,10.7,1.6,12.1,6.8l0,0c1.5,5.2-1.6,10.7-6.8,12.1l-0.5,0.1l0,0L324.8,383.8
	L324.8,383.8z"/>
<path class="st1" d="M417.7,418.8c-7.8,3.1-16.7-0.7-19.8-8.5c-2.4-6-0.8-12.8,4-17.1c5.3,3.8,9.9,9.4,13.1,17.7L417.7,418.8z"/>
<rect x="258.8" y="182.2" class="st1" width="10.3" height="149.8"/>
<circle class="st1" cx="263.9" cy="187.4" r="14.4"/>
<circle class="st1" cx="642.4" cy="339.2" r="14.4"/>
</svg>
